<svg width="88" height="108" viewBox="0 0 88 108" fill="none" xmlns="http://www.w3.org/2000/svg">
    <path
        d="M53.0242 96.7751C54.9864 97.9486 57.1492 98.748 59.403 99.1326C60.1839 99.2608 60.4432 99.7562 60.4578 100.374C60.4724 100.992 60.4228 105.267 60.4899 105.858C60.5394 106.141 60.6748 106.401 60.8777 106.604C61.0805 106.807 61.3409 106.942 61.6234 106.992C64.2606 107.161 66.9071 106.866 69.4417 106.117C69.6166 106.07 69.7805 105.989 69.9239 105.878C70.0673 105.767 70.1874 105.629 70.2773 105.472C70.3672 105.315 70.4251 105.141 70.4477 104.961C70.4704 104.782 70.4572 104.599 70.4091 104.424C70.0973 102.985 69.3047 100.307 69.1852 99.6746C69.0658 99.0422 68.9667 98.5585 69.599 98.3166C72.6658 97.1384 75.417 95.2641 77.6358 92.8412C78.0933 92.3429 78.5567 92.3225 79.2123 92.7159C79.6931 93.0073 81.2521 93.8465 81.8029 94.0826C82.3536 94.3186 82.7732 94.2021 83.1724 93.596C85.1073 90.6557 86.5468 87.4765 87.1763 84.1983C87.2841 83.6388 86.8208 83.2104 86.0864 83.0093C85.3521 82.8083 82.3128 82.3217 81.8465 82.1585C81.6299 82.0833 81.445 81.937 81.3223 81.7433C81.1995 81.5496 81.146 81.32 81.1705 81.0919C81.4444 77.9623 81.2171 74.8268 79.7135 71.9595C79.3434 71.2514 79.9 71.0357 80.512 70.7181C81.1795 70.3598 81.822 69.9567 82.4352 69.5117C82.8781 69.1795 83.2132 68.7919 83.018 68.2849C82.2254 66.315 80.6169 64.7327 78.9909 63.2058C78.2002 62.4727 77.3631 61.7914 76.4848 61.166C76.0331 60.8425 75.6106 61.0815 75.1589 61.7837C74.5952 62.6287 74.0908 63.5119 73.6495 64.4268C73.3581 65.0941 73.0171 65.5924 72.3498 65.301C70.4181 64.4674 68.3566 63.9744 66.2567 63.844C65.5048 63.7973 65.4961 63.1213 65.4961 62.5239C65.4961 61.9265 65.4087 59.9625 65.3417 59.3709C65.2747 58.7794 65.0503 58.1354 64.2985 58.1791C61.4146 58.3073 58.5793 58.9672 55.9353 60.1257C55.1194 60.4812 55.1631 61.1572 55.4574 61.7051C55.9382 62.6055 56.5997 63.9809 56.961 64.7852C57.3224 65.5894 57.2524 65.9945 56.6696 66.3937C54.7291 67.6437 53.0771 69.2927 51.8236 71.231C51.5818 71.6039 51.3166 71.8982 50.8532 71.6185C50.3899 71.3388 48.2569 69.6049 47.7411 69.1328C47.2253 68.6608 46.6804 68.1071 46.0364 68.754C43.7024 71.0896 41.8829 73.8878 40.695 76.9686C40.4852 77.5048 40.6659 77.7642 41.2108 78.0527C41.7558 78.3411 45.5323 80.2236 45.917 80.4101C46.1485 80.5084 46.3421 80.6791 46.4687 80.8965C46.5952 81.114 46.6481 81.3665 46.6192 81.6165C46.6192 81.7563 46.5988 81.9079 46.5901 82.0332C46.4473 84.5072 46.9601 86.9345 47.8344 89.2978C47.983 89.697 48.1666 90.2885 47.2224 91.0229C46.593 91.5095 44.2822 93.5085 43.7052 94.0039C43.2798 94.3711 42.9563 94.9597 43.3322 95.5134C44.6961 97.5203 46.3441 99.3186 48.2248 100.852C48.694 101.239 49.2039 101.199 49.6527 100.633C50.1014 100.068 51.4011 98.4361 51.9839 97.5794C52.3452 97.0519 52.5463 96.4954 53.0242 96.7751Z"
        fill="white" />
    <path
        d="M53.4969 95.9652C55.109 96.9159 56.8587 97.6109 58.6838 98.0254C58.9111 98.072 59.1384 98.1186 59.3657 98.1565L59.5347 98.1857L59.7969 98.2381C59.9999 98.2892 60.1957 98.3656 60.3797 98.4654C60.7945 98.7001 61.1117 99.0752 61.2743 99.5232C61.3425 99.7111 61.3865 99.9069 61.4055 100.106C61.4055 100.196 61.4054 100.292 61.4229 100.365V103.518V104.975C61.4229 105.214 61.4229 105.465 61.4404 105.663C61.4404 105.774 61.4404 105.727 61.4404 105.756C61.4508 105.785 61.4666 105.812 61.487 105.835C61.5369 105.905 61.6029 105.962 61.6794 106.001C61.7056 106.001 61.7085 106.001 61.6794 106.001L62.0291 106.021C62.4953 106.045 62.9644 106.056 63.4307 106.045C65.3189 105.986 67.1924 105.692 69.0081 105.171L69.1654 105.13L69.212 105.112C69.2471 105.095 69.2803 105.075 69.3111 105.051C69.3632 105.01 69.4026 104.956 69.4248 104.894C69.4473 104.811 69.4473 104.723 69.4248 104.64V104.596C69.4265 104.57 69.4265 104.544 69.4248 104.518L69.3869 104.346L69.3053 104.002C69.078 103.07 68.8187 102.125 68.5651 101.173C68.4398 100.689 68.3029 100.234 68.1951 99.663C68.1659 99.5127 68.1446 99.361 68.131 99.2085C68.1074 98.9823 68.1222 98.7537 68.1747 98.5324C68.2465 98.2272 68.4091 97.9509 68.6409 97.7398C68.8236 97.5798 69.034 97.4544 69.2616 97.3697C70.1381 97.0332 70.991 96.638 71.8143 96.1867C73.4621 95.2777 74.9762 94.145 76.3135 92.821C76.4796 92.6578 76.6428 92.4888 76.803 92.3168L76.9254 92.1886C76.975 92.1391 77.042 92.0633 77.1148 91.9992C77.2761 91.8505 77.46 91.7286 77.6597 91.6379C77.8915 91.5335 78.1428 91.4798 78.397 91.4805C78.6194 91.4817 78.84 91.5201 79.0497 91.5942C79.217 91.6517 79.3789 91.7238 79.5334 91.8098L79.8656 92.0021C80.2765 92.2382 80.7078 92.4742 81.1303 92.6986L81.7656 93.0278C81.92 93.1113 82.0807 93.1825 82.2464 93.2406C82.2784 93.2406 82.2813 93.2406 82.2464 93.2406C82.2367 93.2394 82.2269 93.2394 82.2172 93.2406C82.2481 93.2163 82.2764 93.189 82.3017 93.159C82.3576 93.0883 82.4092 93.0144 82.4562 92.9375C82.7155 92.5383 82.972 92.1333 83.2167 91.7224C83.7034 90.9035 84.155 90.0614 84.5601 89.2018C84.9651 88.3433 85.3192 87.4617 85.6208 86.5617C85.7723 86.1129 85.9122 85.6583 86.0258 85.2037L86.1948 84.516L86.3085 83.9799C86.3057 83.9914 86.3057 84.0034 86.3085 84.0148C86.3085 84.0148 86.3085 84.0148 86.2764 83.974C86.1703 83.8931 86.051 83.831 85.9239 83.7905C85.7723 83.7409 85.5363 83.6914 85.3032 83.6418L84.5921 83.502L83.1351 83.228L82.4008 83.0853L82.0278 83.0066L81.8297 82.9629C81.7627 82.9454 81.6985 82.9308 81.5965 82.8988C81.2765 82.803 80.989 82.621 80.7654 82.3728C80.5418 82.1246 80.3908 81.8196 80.329 81.4913C80.3083 81.3847 80.2975 81.2764 80.2969 81.1679C80.2911 81.0776 80.2911 80.9871 80.2969 80.8968C80.3348 80.4219 80.3698 79.9469 80.3814 79.4719C80.4158 78.531 80.3768 77.5889 80.2649 76.6541C80.1599 75.7324 79.9557 74.8247 79.6558 73.9469C79.583 73.7255 79.4926 73.5157 79.414 73.3C79.3353 73.0844 79.2333 72.8746 79.1226 72.6706L78.9681 72.3617L78.869 72.1548C78.8237 72.0551 78.7866 71.9518 78.7583 71.846C78.6805 71.5493 78.7051 71.2351 78.8282 70.9542C78.9404 70.7214 79.1099 70.5209 79.3207 70.3714C79.5604 70.2061 79.8128 70.06 80.0754 69.9343C80.2707 69.8324 80.4717 69.7158 80.6582 69.5963C81.0575 69.3545 81.4654 69.0893 81.8238 68.827C81.9488 68.7427 82.0599 68.6395 82.1531 68.5211C82.1531 68.4919 82.1735 68.4919 82.1531 68.5211C82.1531 68.5502 82.1531 68.5706 82.1531 68.5619V68.5298L82.1211 68.454L82.0541 68.3025C82.0133 68.2034 81.9579 68.1044 81.9084 68.0111C81.8088 67.8112 81.6989 67.6167 81.5791 67.4283C81.0802 66.6511 80.4999 65.9292 79.8481 65.2749C79.5159 64.9339 79.1721 64.6017 78.8224 64.2695L78.2892 63.7713C78.1172 63.6139 77.9395 63.4565 77.7617 63.3021C77.4033 62.9932 77.0361 62.6931 76.6573 62.4075C76.4679 62.2618 76.2785 62.1161 76.0745 61.982C75.99 61.9179 75.8385 61.816 75.8822 61.8451C75.9355 61.8711 75.9955 61.8803 76.0541 61.8713C76.1299 61.8713 76.1474 61.8363 76.1241 61.8713C76.0812 61.908 76.0413 61.9479 76.0046 61.9908C75.9551 62.0549 75.8997 62.1248 75.8443 62.2093L75.6578 62.5007C75.4072 62.9 75.1595 63.3108 74.9293 63.7246C74.8157 63.9315 74.702 64.1384 74.6 64.3424L74.4514 64.6338L74.2941 64.9777C74.2252 65.1247 74.1463 65.2668 74.058 65.4031C73.9464 65.58 73.81 65.7399 73.653 65.8781C73.4358 66.0658 73.1721 66.1916 72.8895 66.2423C72.6233 66.2865 72.3503 66.2655 72.094 66.1811L71.9395 66.1258L71.8405 66.0879L71.6802 66.0209L71.3539 65.8926C71.1353 65.8052 70.9168 65.7265 70.6953 65.6537C70.2553 65.5022 69.8211 65.3623 69.3548 65.2574C68.4498 65.03 67.528 64.876 66.5982 64.797L66.2485 64.7707H66.1611H66.0387L65.8697 64.7504C65.8085 64.7504 65.7444 64.7212 65.6832 64.7037C65.3933 64.6215 65.1326 64.4589 64.9314 64.2346C64.7552 64.0331 64.6275 63.7938 64.5584 63.5352C64.4794 63.2131 64.4441 62.8818 64.4535 62.5503C64.4535 62.323 64.4535 62.084 64.4331 61.8451C64.4156 61.3614 64.3923 60.8747 64.3661 60.3881C64.3607 59.98 64.3178 59.5732 64.2379 59.1729C64.2029 59.0535 64.165 59.0593 64.2379 59.103C64.256 59.1137 64.2756 59.1216 64.2961 59.1263H64.2728H64.0951C63.6201 59.1554 63.148 59.2021 62.676 59.2516C60.8026 59.4655 58.9643 59.919 57.2064 60.6008L56.5478 60.866L56.236 60.9971C56.2017 61.0101 56.1693 61.0277 56.1398 61.0495C56.1398 61.0495 56.1398 61.0496 56.1398 61.035C56.145 61.0209 56.145 61.0054 56.1398 60.9913C56.136 61.0689 56.1553 61.146 56.1952 61.2127L57.4162 63.9373C57.5182 64.1763 57.6172 64.3657 57.7076 64.6629C57.8514 65.0163 57.9074 65.3993 57.8708 65.779C57.8323 66.0307 57.7322 66.2689 57.5794 66.4725C57.4597 66.6332 57.3162 66.7747 57.1539 66.8921L56.5187 67.3263C55.746 67.8612 55.0242 68.466 54.3623 69.133C53.7103 69.7991 53.1248 70.5272 52.6139 71.3069L52.4216 71.5983C52.3339 71.7352 52.2365 71.8657 52.1302 71.9887C51.9613 72.1946 51.7412 72.3523 51.492 72.4462C51.3288 72.5049 51.1552 72.5297 50.9821 72.5191C50.8352 72.507 50.691 72.4736 50.5537 72.42C50.3806 72.3407 50.2164 72.243 50.0642 72.1286L49.7436 71.8984L49.1375 71.4467C48.3507 70.8348 47.5639 70.2374 46.8063 69.5614C46.7083 69.4627 46.594 69.3818 46.4683 69.3224C46.4961 69.3287 46.525 69.3287 46.5528 69.3224C46.6052 69.3224 46.6373 69.2962 46.6256 69.3224L46.5936 69.3515C46.5936 69.3515 46.5353 69.4099 46.4974 69.4506L46.2556 69.71L45.7806 70.2345C44.5355 71.6521 43.4598 73.21 42.5752 74.8765C42.3508 75.2903 42.1468 75.7157 41.9458 76.1441L41.6544 76.7939L41.5203 77.1203L41.4562 77.2747L41.4387 77.3272C41.4414 77.2756 41.4334 77.2241 41.4154 77.1757C41.4025 77.1274 41.3774 77.0832 41.3425 77.0474C41.3881 77.0852 41.438 77.1175 41.4912 77.1436L41.803 77.3068L43.1026 77.9828L45.7077 79.332L46.0341 79.5011L46.206 79.5914C46.2901 79.6356 46.3718 79.6842 46.4508 79.7371C46.8142 79.9765 47.0902 80.3272 47.2376 80.7366C47.3027 80.9324 47.34 81.1365 47.3483 81.3427C47.3483 81.4418 47.3483 81.535 47.3483 81.6341L47.3308 81.8148C47.3075 82.0624 47.2988 82.2839 47.2871 82.517C47.2429 84.3971 47.5258 86.2705 48.1234 88.0537C48.1963 88.278 48.2691 88.5053 48.3507 88.7297L48.476 89.0852C48.5373 89.2575 48.5774 89.4365 48.5955 89.6185C48.6322 90.0342 48.5297 90.4504 48.3041 90.8016C48.1241 91.0818 47.8986 91.3299 47.6368 91.5359L45.4018 93.4416L44.2886 94.3916C44.1455 94.4955 44.0188 94.6202 43.9127 94.7617C43.8399 94.8695 43.8311 94.9453 43.8399 94.9598C43.8486 94.9744 43.8136 94.9598 44.003 95.2133C44.1371 95.4086 44.2944 95.598 44.4197 95.7962C44.7053 96.1847 45.0025 96.5548 45.3114 96.9064C45.9297 97.6243 46.5894 98.3054 47.2871 98.9462C47.6368 99.2697 47.9981 99.5815 48.3624 99.8845L48.6538 100.112C48.6841 100.139 48.7185 100.162 48.7558 100.179C48.7703 100.179 48.7558 100.179 48.7325 100.179C48.7092 100.179 48.6888 100.179 48.6975 100.179C48.7264 100.16 48.7528 100.137 48.7762 100.112L48.8345 100.045L48.9394 99.9049L49.3765 99.3221L50.2507 98.1565L51.1249 96.9909C51.2385 96.8307 51.3347 96.6412 51.559 96.3411C51.63 96.2488 51.709 96.163 51.7951 96.0847C51.8558 96.0309 51.9201 95.9813 51.9874 95.9361C52.0727 95.8826 52.1636 95.8386 52.2584 95.8049C52.3659 95.7642 52.4788 95.7397 52.5935 95.732C52.7046 95.7245 52.8161 95.7304 52.9257 95.7495C53.0169 95.7692 53.1065 95.7955 53.1938 95.8282L53.4969 95.9652ZM52.5527 97.5824C52.5638 97.5911 52.5768 97.5971 52.5906 97.5999C52.6193 97.6129 52.6497 97.6217 52.6809 97.6262C52.7785 97.6424 52.8786 97.6344 52.9723 97.6029C53.0106 97.5893 53.0468 97.5707 53.0801 97.5475L53.1268 97.5125C53.1268 97.5125 53.1268 97.5125 53.1268 97.53C53.051 97.6174 52.9112 97.8593 52.7392 98.1128L51.8213 99.2784L50.9063 100.444L50.4459 101.027L50.3264 101.181C50.2681 101.248 50.2099 101.315 50.1399 101.382C49.9889 101.532 49.8172 101.66 49.63 101.761C49.4032 101.88 49.1523 101.946 48.8963 101.953C48.6403 101.961 48.386 101.91 48.1526 101.805C47.9655 101.72 47.7918 101.608 47.6368 101.473L47.3454 101.225C46.9637 100.893 46.5877 100.552 46.2235 100.199C45.4946 99.4912 44.8059 98.7431 44.1604 97.9584C43.8399 97.5679 43.5281 97.1657 43.2308 96.752C43.0822 96.5451 42.9394 96.3382 42.7937 96.1283L42.6888 95.9681L42.6626 95.9302L42.6218 95.8661C42.5956 95.8195 42.5664 95.7728 42.5431 95.7233C42.4376 95.5158 42.377 95.2885 42.3654 95.056C42.3528 94.6381 42.48 94.2279 42.7267 93.8904C42.8281 93.7456 42.9432 93.6109 43.0706 93.4883C43.2104 93.3572 43.2804 93.3047 43.3823 93.2173L44.5188 92.2586L46.7801 90.3557C46.9071 90.259 47.0182 90.143 47.1094 90.0119C47.1567 89.9483 47.1785 89.8693 47.1705 89.7904C47.1595 89.7288 47.143 89.6683 47.121 89.6097L46.9957 89.2717C46.9083 89.0328 46.8267 88.7938 46.748 88.5519C46.0796 86.6036 45.7331 84.5593 45.7223 82.4995C45.7223 82.2402 45.7223 81.9721 45.7485 81.7303V81.5438C45.7516 81.5147 45.7516 81.4854 45.7485 81.4563C45.7484 81.4173 45.7405 81.3786 45.7252 81.3427C45.7019 81.2961 45.6844 81.2728 45.5999 81.2174C45.5757 81.202 45.5504 81.1883 45.5242 81.1766L45.3697 81.1008L45.0346 80.9406L42.3683 79.6497L41.0337 79.0056C40.9171 78.9474 40.8239 78.9066 40.6869 78.8337C40.5217 78.7452 40.3655 78.6408 40.2207 78.5219C39.9874 78.3361 39.8128 78.0867 39.7182 77.8039C39.6236 77.521 39.6129 77.2168 39.6874 76.928C39.7109 76.8292 39.7401 76.7319 39.7748 76.6366L39.8506 76.4472L39.9905 76.0916L40.2819 75.3865C40.4917 74.9231 40.7073 74.4598 40.9462 74.0052C41.8835 72.1863 43.0595 70.5007 44.443 68.9931C44.6208 68.8095 44.7898 68.6172 44.9734 68.4395L45.2444 68.1685C45.2939 68.1219 45.3202 68.0898 45.4105 68.0111C45.4903 67.9371 45.5761 67.8699 45.6669 67.8101C45.7712 67.7402 45.8826 67.6816 45.9991 67.6352C46.3909 67.4775 46.8284 67.4775 47.2201 67.6352C47.5441 67.7754 47.8403 67.9728 48.0943 68.218C48.782 68.8679 49.5513 69.4914 50.2856 70.1092L50.8451 70.5579L51.1161 70.7678C51.2123 70.8406 51.2764 70.8756 51.2589 70.8698C51.2347 70.8664 51.2102 70.8664 51.186 70.8698C51.1354 70.8675 51.0849 70.8754 51.0374 70.8931C50.9471 70.9339 50.9529 70.9513 50.985 70.9164C51.0411 70.852 51.0927 70.7839 51.1394 70.7124L51.358 70.3948C51.9495 69.5483 52.6156 68.7564 53.3482 68.0286C54.0817 67.3106 54.8709 66.6519 55.7086 66.0587L56.0204 65.8373L56.1777 65.7295L56.2826 65.6479C56.3195 65.621 56.352 65.5886 56.3788 65.5517C56.3788 65.5517 56.3788 65.5663 56.3788 65.5692C56.3576 65.4588 56.3213 65.352 56.271 65.2516C56.2011 65.0884 56.0641 64.8465 55.9563 64.6396L54.5867 62.0694C54.3853 61.7041 54.2847 61.2918 54.2953 60.8747C54.3092 60.6138 54.3777 60.3586 54.4963 60.1258C54.6109 59.9013 54.7706 59.7029 54.9655 59.543C55.1261 59.4092 55.3046 59.2983 55.4959 59.2137L55.8601 59.0535C56.0932 58.9486 56.3322 58.8611 56.5682 58.7621C58.4823 58.0242 60.483 57.5345 62.5215 57.3051C63.0285 57.2497 63.5356 57.2031 64.0397 57.1739H64.2291C64.3445 57.1653 64.4605 57.1653 64.5759 57.1739C64.8418 57.201 65.098 57.2888 65.3248 57.4304C65.5448 57.5709 65.7333 57.7554 65.8784 57.9724C65.9939 58.1483 66.0841 58.3396 66.1465 58.5406C66.2414 58.8481 66.2972 59.1662 66.3126 59.4876L66.3622 60.2453C66.3884 60.7465 66.4117 61.2419 66.4263 61.7402C66.4263 61.9908 66.4263 62.2414 66.4263 62.5065C66.4194 62.6674 66.4291 62.8285 66.4554 62.9874C66.4554 63.0136 66.4554 62.9874 66.4146 62.9349C66.3791 62.895 66.334 62.8649 66.2835 62.8475L66.8313 62.8941C67.8602 62.9932 68.8794 63.1744 69.8794 63.4361C70.3777 63.5673 70.873 63.7275 71.3597 63.8878C71.6005 63.9713 71.8424 64.0617 72.0852 64.1588L72.4437 64.3045L72.7118 64.4182C72.7292 64.4182 72.7118 64.4182 72.6418 64.4182C72.6012 64.4229 72.5628 64.4391 72.5311 64.4648C72.5586 64.4393 72.5822 64.4098 72.601 64.3774C72.646 64.3069 72.6868 64.2339 72.7234 64.1588L72.875 63.8354C72.9332 63.713 72.9915 63.5935 73.0527 63.4769C73.1751 63.2438 73.3004 63.0194 73.4257 62.8009C73.6792 62.3579 73.9444 61.9267 74.2212 61.5012L74.4398 61.169C74.5214 61.0496 74.6175 60.9272 74.7312 60.8019C74.8536 60.6571 74.9925 60.527 75.1449 60.4143C75.3605 60.2505 75.6142 60.1442 75.8822 60.1054C76.1832 60.0665 76.4888 60.1225 76.7564 60.2657C76.9015 60.3521 77.0399 60.4496 77.1702 60.5571C77.3742 60.7086 77.5781 60.8485 77.7763 61.0175C78.1784 61.3293 78.5689 61.6528 78.9419 61.9908C79.1313 62.1598 79.3207 62.3317 79.5072 62.5065L80.0463 63.0223C80.4047 63.3691 80.7632 63.7246 81.1128 64.0947C81.8418 64.8406 82.4903 65.661 83.0477 66.5425C83.1905 66.7698 83.3187 67.0058 83.4411 67.2476C83.4994 67.37 83.5635 67.4866 83.616 67.6119L83.6976 67.8013L83.7384 67.8945L83.7587 67.947L83.7879 68.0286C83.871 68.2741 83.8939 68.5359 83.8549 68.7921C83.8133 69.0313 83.7209 69.2589 83.5839 69.4594C83.3842 69.7377 83.1377 69.9792 82.8554 70.1733C82.4183 70.488 81.9987 70.7561 81.5557 71.0213C81.3343 71.1524 81.1099 71.2806 80.871 71.4059C80.6878 71.4909 80.5106 71.5883 80.3406 71.6973C80.2969 71.7265 80.3173 71.7294 80.3406 71.6507C80.3667 71.5974 80.3758 71.5374 80.3668 71.4788C80.3464 71.4467 80.5067 71.7702 80.6145 71.9946C80.7223 72.2189 80.8244 72.4725 80.9293 72.7114C81.0342 72.9503 81.1216 73.198 81.2002 73.4487C81.5303 74.4335 81.7617 75.4486 81.8909 76.4792C82.0157 77.496 82.0625 78.5208 82.0307 79.5448C82.0307 80.0547 81.987 80.5588 81.9492 81.063C81.9492 81.1475 81.9492 81.1416 81.9492 81.162C81.9463 81.1765 81.9463 81.1913 81.9492 81.2057C81.9542 81.2289 81.962 81.2514 81.9725 81.2728C82.0008 81.3127 82.0437 81.3399 82.0919 81.3485L82.2172 81.3806L82.3804 81.4155L82.7243 81.4884L83.4411 81.6225L84.8981 81.8876L85.6325 82.0246C85.9067 82.0743 86.178 82.1385 86.4454 82.2169C86.79 82.3226 87.1099 82.496 87.3867 82.7268C87.5592 82.8747 87.7026 83.0536 87.8092 83.2543C87.932 83.4828 87.997 83.7379 87.9986 83.9973C87.9986 84.0614 87.9986 84.1256 87.9986 84.1838V84.2742C88.0005 84.2984 88.0005 84.3228 87.9986 84.347L87.9607 84.5335L87.885 84.9094L87.713 85.6554C87.5848 86.1508 87.4479 86.6433 87.2905 87.127C86.9761 88.0941 86.6074 89.0426 86.1861 89.9681C85.7633 90.8886 85.2946 91.7873 84.7816 92.6607C84.528 93.0978 84.26 93.5349 83.986 93.9487C83.9034 94.0821 83.8129 94.2106 83.715 94.3333C83.5853 94.4931 83.4343 94.6343 83.2663 94.7529C83.0571 94.9017 82.8171 95.0013 82.564 95.0443C82.3257 95.0835 82.082 95.0745 81.8471 95.0181C81.6694 94.9762 81.4965 94.9156 81.3314 94.8375L80.9701 94.6684C80.7369 94.5548 80.5155 94.4382 80.2911 94.3246C79.8452 94.0915 79.4169 93.8584 78.9681 93.6078L78.6767 93.4329C78.6171 93.3993 78.5548 93.3711 78.4902 93.3484L78.4203 93.3309H78.4436C78.4202 93.3446 78.3987 93.3613 78.3795 93.3805C78.3591 93.3979 78.3475 93.4154 78.3096 93.4533L78.1784 93.5932C78.0036 93.7826 77.8288 93.9662 77.6452 94.1468C76.1958 95.6044 74.5512 96.8538 72.7584 97.8593C71.8606 98.3599 70.9299 98.799 69.9726 99.1735C69.9027 99.2026 69.9231 99.2026 69.9726 99.1735C70.0212 99.1281 70.0574 99.0708 70.0775 99.0074C70.0775 98.9345 70.0775 99.121 70.1241 99.3367C70.197 99.733 70.3398 100.211 70.4651 100.689C70.7244 101.633 70.9896 102.583 71.2315 103.562L71.3218 103.932L71.3655 104.121L71.3859 104.223L71.4092 104.36C71.4792 104.761 71.4461 105.173 71.3131 105.558C71.1726 105.963 70.9212 106.321 70.5875 106.59C70.4276 106.722 70.2501 106.832 70.06 106.916C69.9657 106.96 69.8683 106.997 69.7686 107.027L69.5705 107.082C67.5995 107.636 65.5676 107.944 63.521 108C63.0052 108 62.4895 108 61.9737 107.971L61.589 107.948C61.3451 107.927 61.1071 107.862 60.8868 107.755C60.5207 107.575 60.2038 107.309 59.963 106.98C59.8387 106.807 59.7405 106.616 59.6716 106.415C59.6003 106.212 59.5591 106 59.5492 105.785C59.5347 105.494 59.5288 105.252 59.5259 104.999V103.512V100.569V100.4C59.5259 100.351 59.5259 100.325 59.5259 100.292C59.5237 100.249 59.5149 100.205 59.4997 100.164C59.4764 100.115 59.4997 100.144 59.4706 100.121C59.4939 100.083 58.7712 99.9865 58.305 99.8729C56.28 99.4136 54.3392 98.6408 52.5527 97.5824Z"
        fill="#5F5F5F" />
    <path
        d="M57.2151 88.6918C52.8208 85.2183 52.9956 79.6146 55.9475 75.9197C58.8994 72.2247 64.7274 71.2048 68.8274 74.4802C72.9274 77.7555 73.4898 83.6738 70.6341 87.2348C67.7784 90.7957 62.0261 92.4975 57.2151 88.6918Z"
        fill="white" />
    <path
        d="M56.6116 89.4553C55.573 88.6153 54.7079 87.581 54.0648 86.4102C53.4254 85.2305 53.0552 83.9238 52.9808 82.5841C52.857 79.937 53.7529 77.3433 55.4839 75.3369C56.3295 74.3385 57.367 73.52 58.5349 72.93C59.6965 72.3451 60.956 71.9796 62.2502 71.8518C63.5492 71.7251 64.8605 71.8568 66.1084 72.2393C67.3565 72.6298 68.5159 73.2614 69.5207 74.0985C70.5295 74.9321 71.3684 75.9521 71.9917 77.1028C72.6136 78.2591 73.0148 79.5209 73.1748 80.824C73.3374 82.1378 73.2384 83.4709 72.8834 84.7463C72.5193 86.041 71.8668 87.2365 70.9747 88.2431C69.1988 90.2579 66.7242 91.5233 64.0511 91.7836C62.7135 91.9077 61.3646 91.7559 60.088 91.3377C58.8288 90.9166 57.6525 90.2797 56.6116 89.4553ZM57.818 87.9283C59.5251 89.3138 61.6986 89.9916 63.8906 89.8219C66.0826 89.6522 68.1259 88.648 69.5993 87.0163C70.3243 86.2056 70.8702 85.2513 71.2016 84.2154C71.533 83.1796 71.6424 82.0856 71.5226 81.0047C71.3165 78.771 70.2546 76.7036 68.559 75.2349C67.7145 74.5065 66.7313 73.9564 65.6686 73.6179C64.606 73.2793 63.4858 73.1593 62.3755 73.2651C61.2627 73.3617 60.18 73.678 59.1902 74.1957C58.2003 74.7134 57.3229 75.4222 56.6087 76.2811C55.1937 78.0166 54.5064 80.233 54.6913 82.4646C54.801 83.5355 55.1357 84.5712 55.6733 85.5039C56.224 86.4437 56.9525 87.2671 57.818 87.9283Z"
        fill="#5F5F5F" />
    <path
        d="M40.8473 33.0518C41.0688 34.2574 41.045 35.4952 40.7773 36.6914C40.5009 37.9028 39.9584 39.0375 39.1892 40.0134C38.4251 40.9781 37.4735 41.7781 36.3918 42.365C35.3198 42.9445 34.152 43.3256 32.9445 43.4898C30.5007 43.8136 28.0273 43.1659 26.0558 41.686C25.0799 40.9597 24.2595 40.0452 23.643 38.9964C23.0307 37.9488 22.6409 36.7862 22.4978 35.5812C22.217 33.1781 22.8746 30.7594 24.3336 28.8294C25.0511 27.8736 25.9491 27.0678 26.9766 26.4574C28.0106 25.8397 29.1655 25.4521 30.3627 25.321C32.7556 25.0625 35.1608 25.684 37.129 27.0694C38.1142 27.7687 38.9469 28.661 39.5768 29.692C40.1957 30.7279 40.6259 31.8655 40.8473 33.0518ZM39.0989 33.3432C38.946 32.359 38.6194 31.4099 38.1344 30.54C37.6454 29.6746 36.985 28.918 36.1936 28.3166C34.5641 27.0921 32.5336 26.5253 30.5055 26.7285C29.5097 26.8249 28.548 27.1425 27.6906 27.658C26.8293 28.1877 26.08 28.8806 25.4847 29.6978C24.8868 30.5109 24.4496 31.4308 24.1967 32.4078C23.9535 33.3794 23.904 34.3894 24.051 35.3801C24.1955 36.3604 24.5397 37.3006 25.0621 38.1426C25.5875 38.9795 26.2752 39.7028 27.0845 40.2698C28.7043 41.4149 30.7013 41.8957 32.6648 41.6132C34.6191 41.3196 36.3986 40.3216 37.6681 38.807C38.2788 38.0603 38.7211 37.1906 38.9648 36.2572C39.2053 35.305 39.2529 34.3142 39.1047 33.3432H39.0989Z"
        fill="#5F5F5F" />
    <path
        d="M29.6392 18.2457C29.9568 20.1165 28.6105 21.4861 27.002 21.7425C26.5967 21.816 26.181 21.8089 25.7785 21.7217C25.376 21.6345 24.9945 21.4689 24.656 21.2343C24.3175 20.9997 24.0286 20.7007 23.8056 20.3544C23.5826 20.0082 23.43 19.6213 23.3566 19.2161C23.2831 18.8108 23.2902 18.3951 23.3774 17.9926C23.4646 17.5901 23.6302 17.2086 23.8648 16.8701C24.0994 16.5316 24.3984 16.2426 24.7447 16.0197C25.091 15.7967 25.4778 15.6441 25.883 15.5707C26.3058 15.4949 26.7395 15.5042 27.1586 15.5983C27.5777 15.6923 27.9738 15.8691 28.3237 16.1183C28.6735 16.3674 28.9701 16.684 29.196 17.0493C29.4219 17.4146 29.5726 17.8214 29.6392 18.2457Z"
        fill="white" />
    <path
        d="M30.5199 18.097C30.6262 18.625 30.6262 19.1688 30.5199 19.6968C30.4039 20.2382 30.1668 20.7463 29.8263 21.1829C29.1539 22.0263 28.1766 22.5713 27.1057 22.6999C26.0348 22.8286 24.9563 22.5307 24.1032 21.8706C23.6858 21.551 23.3377 21.1498 23.0802 20.6914C22.8227 20.2331 22.6612 19.7271 22.6054 19.2043C22.5035 18.1809 22.7964 17.1573 23.4242 16.3428C23.7302 15.9342 24.1156 15.5917 24.5573 15.3358C24.999 15.0799 25.4878 14.916 25.9944 14.8537C27.0055 14.731 28.027 14.975 28.8734 15.5414C29.3083 15.8345 29.6766 16.2157 29.9545 16.6604C30.2276 17.1015 30.4191 17.5881 30.5199 18.097ZM28.7715 18.3884C28.7062 17.7761 28.409 17.212 27.9409 16.8119C27.4385 16.4005 26.7961 16.2 26.1489 16.2524C25.8335 16.2843 25.529 16.3848 25.2566 16.5469C24.9843 16.709 24.7507 16.9287 24.5724 17.1907C24.3866 17.4485 24.2547 17.7411 24.1846 18.0511C24.1145 18.361 24.1077 18.6819 24.1644 18.9945C24.2173 19.2914 24.3311 19.5741 24.4986 19.8248C24.6661 20.0756 24.8837 20.2889 25.1377 20.4515C25.6353 20.7782 26.2371 20.907 26.8249 20.8128C27.4032 20.7115 27.9291 20.4141 28.3139 19.9707C28.4947 19.7539 28.6279 19.5015 28.7047 19.2299C28.7815 18.9583 28.8003 18.6736 28.7598 18.3942L28.7715 18.3884Z"
        fill="#5F5F5F" />
    <path
        d="M44.1012 20.7866C44.4159 22.6574 43.0725 24.027 41.4786 24.2834C40.6601 24.4318 39.8163 24.249 39.1326 23.7752C38.449 23.3014 37.9815 22.5754 37.8332 21.757C37.6848 20.9385 37.8676 20.0947 38.3414 19.411C38.8152 18.7274 39.5411 18.2599 40.3596 18.1115C40.7813 18.0379 41.2135 18.0489 41.6309 18.1439C42.0483 18.239 42.4426 18.4161 42.7909 18.6651C43.1391 18.9141 43.4344 19.2299 43.6593 19.5941C43.8843 19.9584 44.0345 20.3637 44.1012 20.7866Z"
        fill="white" />
    <path
        d="M44.9818 20.6381C45.0896 21.1649 45.0896 21.7081 44.9818 22.235C44.8688 22.7777 44.6325 23.2872 44.2912 23.724C43.6179 24.5661 42.6408 25.1101 41.5703 25.2387C40.4999 25.3673 39.4217 25.0703 38.5681 24.4117C38.1509 24.0919 37.803 23.6906 37.5456 23.2323C37.2881 22.774 37.1264 22.2681 37.0703 21.7454C36.9688 20.7225 37.2605 19.6994 37.8862 18.8839C38.1935 18.4759 38.5796 18.1339 39.0216 17.8781C39.4636 17.6223 39.9525 17.458 40.4593 17.3948C41.4704 17.2707 42.4924 17.5148 43.3383 18.0825C43.7732 18.3755 44.1415 18.7568 44.4194 19.2015C44.6914 19.6428 44.8819 20.1294 44.9818 20.6381ZM43.2334 20.9295C43.1688 20.317 42.8715 19.7527 42.4029 19.353C41.9012 18.9402 41.2583 18.7395 40.6108 18.7935C40.2958 18.825 39.9914 18.9251 39.719 19.0866C39.4467 19.2482 39.213 19.4675 39.0344 19.7289C38.8483 19.9866 38.7162 20.2791 38.6461 20.5891C38.576 20.8991 38.5693 21.22 38.6264 21.5327C38.679 21.8297 38.7927 22.1125 38.9602 22.3633C39.1277 22.6141 39.3455 22.8274 39.5997 22.9897C40.0985 23.3133 40.7002 23.4391 41.2869 23.3423C41.8652 23.241 42.3911 22.9436 42.7759 22.5001C42.955 22.2847 43.0872 22.0342 43.1639 21.7648C43.2407 21.4953 43.2604 21.2128 43.2218 20.9353L43.2334 20.9295Z"
        fill="#5F5F5F" />
    <path
        d="M50.5328 35.112C50.8475 36.9828 49.5042 38.3523 47.8928 38.6088C47.0743 38.7572 46.2304 38.5744 45.5468 38.1006C44.8632 37.6268 44.3957 36.9008 44.2473 36.0823C44.099 35.2639 44.2818 34.42 44.7556 33.7364C45.2294 33.0527 45.9553 32.5853 46.7738 32.4369C47.1967 32.3615 47.6304 32.3711 48.0495 32.4653C48.4687 32.5595 48.8648 32.7363 49.2148 32.9854C49.5649 33.2344 49.8617 33.5508 50.088 33.9159C50.3143 34.2811 50.4655 34.6877 50.5328 35.112Z"
        fill="white" />
    <path
        d="M51.3603 34.9721C51.4666 35.4922 51.4666 36.0285 51.3603 36.5486C51.2466 37.0847 51.0179 37.5898 50.6901 38.0289C50.3638 38.4547 49.9567 38.812 49.4922 39.0803C49.0277 39.3485 48.5149 39.5226 47.983 39.5924C47.4512 39.6622 46.9108 39.6265 46.3927 39.4872C45.8747 39.3479 45.3892 39.1079 44.9641 38.7808C44.54 38.4571 44.1863 38.0504 43.9248 37.5855C43.6632 37.1205 43.4993 36.607 43.443 36.0766C43.2069 33.9756 44.7834 31.9241 46.8844 31.7259C47.3805 31.6782 47.8812 31.7156 48.3647 31.8367C48.8553 31.9524 49.3198 32.159 49.7343 32.4457C50.1618 32.7377 50.5257 33.1134 50.8037 33.5501C51.0723 33.9873 51.2607 34.4688 51.3603 34.9721ZM49.7022 35.2635C49.6716 34.9457 49.5775 34.6373 49.4254 34.3566C49.2733 34.0758 49.0664 33.8285 48.8169 33.6293C48.5674 33.4301 48.2804 33.283 47.9729 33.1968C47.6655 33.1106 47.3439 33.0871 47.0272 33.1276C46.715 33.1686 46.4151 33.2758 46.1477 33.4422C45.8804 33.6085 45.6517 33.8301 45.4769 34.0921C45.1207 34.6113 44.9836 35.25 45.0952 35.8697C45.149 36.159 45.2613 36.4343 45.4252 36.6788C45.589 36.9233 45.8009 37.1319 46.0481 37.2917C46.5326 37.6188 47.1223 37.7519 47.7003 37.6647C48.2823 37.5784 48.8177 37.2969 49.2185 36.8662C49.4135 36.6497 49.5581 36.3926 49.6417 36.1134C49.7254 35.8342 49.7461 35.54 49.7022 35.2519V35.2635Z"
        fill="#5F5F5F" />
    <path
        d="M25.9769 46.5758C26.2916 48.4437 24.9483 49.8162 23.3543 50.0726C22.5359 50.2214 21.6919 50.0389 21.008 49.5654C20.324 49.0919 19.8562 48.366 19.7074 47.5476C19.5587 46.7292 19.7411 45.8851 20.2147 45.2012C20.6882 44.5173 21.414 44.0495 22.2324 43.9007C22.6543 43.8274 23.0865 43.8387 23.5039 43.9339C23.9214 44.029 24.3158 44.2062 24.6642 44.4551C25.0125 44.704 25.308 45.0196 25.5334 45.3837C25.7587 45.7477 25.9095 46.153 25.9769 46.5758Z"
        fill="white" />
    <path
        d="M26.8423 46.427C26.9501 46.9529 26.9501 47.4951 26.8423 48.021C26.7293 48.5612 26.4963 49.0691 26.1604 49.5071C25.49 50.3534 24.5135 50.9018 23.442 51.0337C22.3705 51.1657 21.2901 50.8706 20.4344 50.2123C20.015 49.8915 19.6654 49.4885 19.4069 49.0281C19.1484 48.5677 18.9864 48.0594 18.9308 47.5343C18.8284 46.5082 19.1236 45.4819 19.7554 44.6669C20.0636 44.2644 20.4465 43.925 20.8832 43.6675C21.3289 43.405 21.8257 43.241 22.3402 43.1866C23.3491 43.0672 24.3674 43.3132 25.2104 43.8802C25.6427 44.173 26.0098 44.5519 26.2886 44.9933C26.556 45.435 26.7434 45.9203 26.8423 46.427ZM25.1114 46.7184C25.045 46.1012 24.7447 45.5328 24.2721 45.1303C23.767 44.7179 23.1208 44.5193 22.4713 44.5766C22.1571 44.612 21.8543 44.715 21.5837 44.8785C21.3131 45.042 21.0811 45.2621 20.9036 45.5237C20.7197 45.7812 20.5894 46.073 20.5203 46.3819C20.4513 46.6907 20.4448 47.0102 20.5014 47.3216C20.5537 47.6183 20.6669 47.901 20.8339 48.1518C21.0009 48.4026 21.2181 48.616 21.4718 48.7786C21.9683 49.1 22.5657 49.2276 23.1503 49.137C23.7281 49.0372 24.2551 48.7444 24.6451 48.3065C24.8323 48.0914 24.9709 47.8384 25.0514 47.5648C25.1318 47.2912 25.1523 47.0035 25.1114 46.7213V46.7184Z"
        fill="#5F5F5F" />
    <path
        d="M41.7438 47.2224C42.0585 49.0932 40.7151 50.4628 39.1212 50.7192C38.3027 50.8676 37.4589 50.6848 36.7752 50.211C36.0916 49.7372 35.6241 49.0112 35.4757 48.1928C35.3273 47.3743 35.5102 46.5305 35.984 45.8468C36.4578 45.1632 37.1837 44.6957 38.0022 44.5473C38.4239 44.4737 38.856 44.4847 39.2735 44.5797C39.6909 44.6747 40.0852 44.8519 40.4335 45.1009C40.7817 45.3499 41.0769 45.6657 41.3019 46.03C41.5268 46.3942 41.677 46.7995 41.7438 47.2224Z"
        fill="white" />
    <path
        d="M42.5927 47.0799C42.7004 47.6028 42.7004 48.1422 42.5927 48.6651C42.4821 49.2027 42.2521 49.7087 41.9195 50.1454C41.2547 50.9991 40.2792 51.5552 39.2058 51.6922C38.1325 51.8292 37.0486 51.5361 36.1906 50.8768C35.7693 50.554 35.4183 50.1488 35.1587 49.6859C34.8992 49.223 34.7367 48.7121 34.6811 48.1843C34.448 46.0979 36.0012 44.0464 38.1022 43.8366C39.1092 43.7281 40.1224 43.9778 40.9637 44.5418C41.393 44.835 41.7579 45.2128 42.0361 45.652C42.3038 46.0917 42.4922 46.575 42.5927 47.0799ZM40.8967 47.3713C40.8301 46.7503 40.5276 46.1787 40.0517 45.7744C39.543 45.361 38.8912 45.1661 38.2392 45.2324C37.9257 45.2699 37.6241 45.3746 37.355 45.5396C37.0859 45.7046 36.8557 45.9258 36.6801 46.1882C36.4994 46.4455 36.3718 46.7363 36.3048 47.0435C36.2377 47.3507 36.2326 47.6682 36.2897 47.9774C36.3431 48.2695 36.456 48.5475 36.6214 48.7942C36.7868 49.0408 37.0013 49.2508 37.2513 49.4111C37.7412 49.7356 38.3345 49.8655 38.9152 49.7753C39.4942 49.6805 40.0246 49.3942 40.4217 48.9623C40.6126 48.7469 40.754 48.4923 40.8361 48.2165C40.9181 47.9406 40.9388 47.6501 40.8967 47.3654V47.3713Z"
        fill="#5F5F5F" />
    <path
        d="M19.0738 31.4754C19.3885 33.3433 18.0451 34.7158 16.4337 34.9722C15.6231 35.1013 14.7942 34.9078 14.1247 34.4331C13.4551 33.9583 12.9982 33.2402 12.8518 32.4325C12.7055 31.6249 12.8813 30.7921 13.3417 30.1125C13.8021 29.433 14.5104 28.9609 15.3147 28.7974C15.7378 28.7225 16.1716 28.7325 16.5908 28.827C17.0099 28.9216 17.406 29.0986 17.756 29.3479C18.106 29.5973 18.4027 29.9138 18.629 30.2791C18.8553 30.6443 19.0065 31.051 19.0738 31.4754Z"
        fill="white" />
    <path
        d="M19.8981 31.3353C20.0059 31.8553 20.0059 32.3919 19.8981 32.9118C19.7849 33.4463 19.5561 33.9495 19.2279 34.3863C18.9036 34.8134 18.4979 35.172 18.0341 35.4413C17.5704 35.7105 17.0578 35.8852 16.5261 35.9551C15.9945 36.025 15.4542 35.9888 14.9366 35.8486C14.419 35.7083 13.9343 35.4669 13.5107 35.1381C12.8912 34.6603 12.4274 34.0093 12.1783 33.2676C11.9291 32.526 11.9057 31.7271 12.1111 30.9721C12.3164 30.2172 12.7413 29.5402 13.3318 29.027C13.9223 28.5137 14.6519 28.1873 15.4281 28.0891C16.4344 27.9823 17.4461 28.2352 18.2838 28.8031C18.7082 29.0982 19.069 29.4758 19.3445 29.9133C19.612 30.3507 19.7994 30.8322 19.8981 31.3353ZM18.2459 31.6267C18.1749 30.9981 17.8612 30.4219 17.3717 30.0211C17.1196 29.8219 16.8318 29.6726 16.5237 29.5811C16.2086 29.4916 15.8796 29.461 15.5533 29.4908C15.244 29.5224 14.9455 29.6219 14.6791 29.7822C14.4142 29.9523 14.1847 30.1719 14.0031 30.4291C13.646 30.949 13.5079 31.5886 13.6185 32.2095C13.6713 32.5014 13.7847 32.7791 13.9513 33.0245C14.1179 33.2699 14.3341 33.4777 14.5859 33.6345C14.8318 33.7954 15.1055 33.9091 15.3931 33.9696C15.6708 34.0363 15.9588 34.0481 16.2411 34.0046C16.8268 33.9262 17.3668 33.6459 17.768 33.212C17.9589 32.9965 18.1005 32.742 18.183 32.4662C18.2656 32.1904 18.287 31.9 18.2459 31.6151V31.6267Z"
        fill="#5F5F5F" />
    <path
        d="M37.3529 58.561C34.7827 58.7505 32.1368 59.1059 29.4006 58.9486C29.0606 58.9272 28.7197 58.8981 28.3778 58.8612C28.2058 58.8612 28.0368 58.8204 27.8649 58.7971L27.623 58.765L27.4394 58.7475C27.267 58.725 27.0916 58.7419 26.9266 58.7971C26.8055 58.862 26.7084 58.9642 26.6498 59.0885L24.8693 62.5358C24.5779 63.1186 24.2603 63.7014 23.9368 64.2842C23.8523 64.4328 23.7707 64.5756 23.6629 64.7562C23.5199 64.9779 23.3418 65.1747 23.1355 65.339C22.7605 65.6361 22.3182 65.8362 21.8475 65.9218C21.6064 65.9661 21.3604 65.9779 21.1161 65.9568C20.9781 65.9454 20.8415 65.921 20.7081 65.8839L20.5099 65.8169L20.3934 65.7674C20.0787 65.6392 19.7669 65.5109 19.4609 65.3711C18.8431 65.0972 18.2341 64.7883 17.6426 64.4794C16.4556 63.8423 15.3135 63.1247 14.2245 62.3317C13.6795 61.9413 13.1521 61.5304 12.6334 61.1108C12.3712 60.901 12.1177 60.6853 11.8612 60.4726L11.4824 60.1462L11.2872 59.9743C11.1971 59.8945 11.1132 59.8078 11.0365 59.715C10.7233 59.3511 10.5122 58.9107 10.4246 58.4386C10.3387 57.9605 10.384 57.4681 10.5558 57.0137C10.6383 56.8008 10.7438 56.5976 10.8705 56.4076C10.9287 56.326 11.0045 56.2153 11.0511 56.157L11.2027 55.9647L11.7855 55.1924L14.1808 52.1065C14.3818 51.8501 14.5887 51.5762 14.7111 51.378C14.7556 51.3122 14.7909 51.2406 14.816 51.1653C14.7962 51.1226 14.7685 51.084 14.7344 51.0516L14.3993 50.6816C14.172 50.4368 13.9535 50.1774 13.7349 49.9239C11.9896 47.8612 10.5643 45.5478 9.50668 43.0614C9.24442 42.4417 9.00256 41.8152 8.7811 41.1819C8.67328 40.8643 8.56256 40.5466 8.4664 40.2261L8.3207 39.7686C8.29549 39.679 8.25719 39.5936 8.20705 39.5151C8.17832 39.4666 8.13903 39.4251 8.09212 39.3939C8.04521 39.3626 7.9919 39.3423 7.93607 39.3344C7.83425 39.3154 7.73075 39.3065 7.62717 39.3082C7.49895 39.3082 7.39697 39.3082 7.20465 39.3315C6.5286 39.384 5.87876 39.416 5.21437 39.4423L4.2178 39.4714H3.71077C3.5301 39.4714 3.37855 39.4714 3.14543 39.451C2.90021 39.4315 2.65945 39.3745 2.43152 39.282C2.16456 39.1748 1.92542 39.0084 1.73215 38.7953C1.41557 38.4224 1.21322 37.9661 1.14935 37.4811C1.12895 37.3733 1.12021 37.2888 1.11147 37.2101L1.07942 36.9624L1.0182 36.4641L0.919133 35.4675C0.863767 34.8032 0.820047 34.1358 0.799649 33.4685C0.75249 32.1323 0.782669 30.7945 0.89 29.4618C0.99199 28.133 1.15518 26.81 1.3679 25.5016L1.53398 24.5254L1.6185 24.0359L1.68843 23.727C1.7234 23.6221 1.75254 23.5143 1.79625 23.4094C1.97042 22.9557 2.2745 22.5634 2.67045 22.2817C3.06774 22.0112 3.53347 21.8586 4.0138 21.8417C4.2322 21.8331 4.4509 21.8468 4.66653 21.8825L5.13568 21.9582C5.44748 22.0019 5.76803 22.0427 6.08857 22.0806L8.02638 22.3021L9.97587 22.5061L10.4566 22.5585C10.5259 22.5719 10.5972 22.5719 10.6665 22.5585C10.8014 22.521 10.9183 22.4362 10.9958 22.3196C11.0159 22.2875 11.0344 22.2544 11.0511 22.2205L11.1298 22.0311L11.3251 21.5561C11.4562 21.2414 11.6164 20.9354 11.7505 20.6265C12.0594 20.0204 12.3828 19.423 12.7442 18.8519C13.4668 17.6966 14.2774 16.5986 15.1686 15.5678C16.0418 14.5475 16.9822 13.5866 17.9835 12.6917C18.2371 12.4702 18.4847 12.2458 18.747 12.0331L19.1229 11.7213C19.18 11.6745 19.2309 11.6206 19.2744 11.561C19.2857 11.5415 19.2917 11.5194 19.2919 11.4969C19.2874 11.4328 19.2726 11.3699 19.2482 11.3104C19.1358 11.0579 19.0043 10.8144 18.8548 10.5819C18.5314 10.0457 18.1729 9.52121 17.8058 8.96464C17.6251 8.67324 17.4386 8.39934 17.258 8.07005C17.0477 7.70291 16.9009 7.30292 16.8238 6.88695C16.7808 6.61089 16.7967 6.32887 16.8704 6.05938C16.9509 5.77277 17.1011 5.5105 17.3075 5.29591C17.3797 5.21942 17.4566 5.14741 17.5377 5.08028L17.7329 4.90836C17.8612 4.7918 17.9981 4.6869 18.1322 4.57616C18.6729 4.15164 19.2403 3.7623 19.831 3.41056C20.9955 2.7067 22.2275 2.12099 23.5085 1.66216C24.1408 1.42904 24.7732 1.21921 25.4113 1.02397C26.0495 0.828733 26.6993 0.650998 27.3521 0.496555C28.0048 0.342113 28.6604 0.205156 29.3161 0.0973378L29.5638 0.0536206C29.6483 0.0536206 29.7095 0.0273874 29.8552 0.00990341C30.167 -0.0242412 30.4821 0.0303123 30.7643 0.167271C31.0379 0.309704 31.2653 0.527 31.42 0.79379C31.5365 0.991314 31.6276 1.20278 31.691 1.42319C31.7898 1.7816 31.8551 2.14839 31.8862 2.51886C31.9241 2.85688 31.9532 3.1891 31.9795 3.52129C32.029 4.18569 32.064 4.84716 32.0873 5.51155C32.0873 5.84083 32.1048 6.18469 32.1077 6.50523C32.0993 6.77128 32.1228 7.03737 32.1776 7.29784C32.1905 7.35575 32.2153 7.41036 32.2505 7.45812C32.2505 7.4756 32.2679 7.4814 32.3204 7.5018C32.3729 7.5222 32.8304 7.53971 33.1393 7.56302C34.4796 7.64198 35.812 7.82119 37.1256 8.09919C37.7841 8.23906 38.4398 8.40807 39.0838 8.60914C39.4082 8.70821 39.7288 8.81603 40.0454 8.93259C40.2028 8.98796 40.3601 9.04914 40.5175 9.11034L40.7535 9.20361C40.7943 9.20361 40.8409 9.23566 40.8672 9.23566C40.9023 9.24663 40.9399 9.24663 40.975 9.23566C41.0197 9.21388 41.0593 9.18311 41.0915 9.14531C41.2502 8.94926 41.3816 8.73264 41.482 8.50132C41.7734 7.89521 42.0823 7.31534 42.3912 6.73254C42.7001 6.14973 43.0119 5.56693 43.3441 4.98413C43.4286 4.83843 43.5131 4.69272 43.6092 4.53536C43.7147 4.36734 43.8316 4.20669 43.9589 4.05455C44.2582 3.67834 44.6647 3.40193 45.1245 3.26194C45.3947 3.18881 45.6783 3.1808 45.9521 3.23861C46.0797 3.26463 46.2046 3.30269 46.3251 3.35226C46.425 3.39506 46.5223 3.44371 46.6165 3.49796C46.9079 3.65823 47.1993 3.81852 47.4907 3.98753C48.0735 4.31973 48.6359 4.67231 49.1954 5.03656C51.443 6.50405 53.4936 8.25305 55.2973 10.241L55.6295 10.6169L55.7985 10.8034C55.8539 10.8646 55.9325 10.9695 55.9996 11.054C56.2512 11.3686 56.4041 11.7508 56.4388 12.1522C56.4736 12.5535 56.3887 12.9562 56.1948 13.3094C56.0798 13.5227 55.9356 13.7188 55.7664 13.8922C55.6892 13.9726 55.6075 14.0485 55.5217 14.1195C55.4401 14.1866 55.3439 14.2594 55.2886 14.3002L54.9039 14.5916C53.884 15.3726 52.8641 16.1914 51.8821 17.019C51.7568 17.1268 51.6577 17.2113 51.5616 17.3104C51.478 17.3886 51.4019 17.4744 51.3343 17.5668C51.2968 17.6105 51.2681 17.6609 51.2497 17.7154C51.2447 17.7384 51.2447 17.7623 51.2497 17.7853C51.2733 17.8663 51.3055 17.9445 51.3459 18.0185L51.5732 18.4119C51.7422 18.7033 51.9054 18.9947 52.0657 19.2861C52.7139 20.4816 53.256 21.7316 53.6859 23.0218C54.095 24.32 54.3876 25.6521 54.5601 27.0023C54.5834 27.183 54.5979 27.2937 54.6213 27.4074C54.6446 27.521 54.6737 27.5531 54.6504 27.5181C54.6115 27.4714 54.5598 27.437 54.5018 27.4191H54.5542H54.598H54.6854C55.2682 27.3229 55.9209 27.1772 56.5445 27.0373C57.1681 26.8974 57.8062 26.7459 58.4328 26.5915L59.3623 26.3525C59.6537 26.2797 59.9451 26.1718 60.3356 26.0815C60.5461 26.0305 60.7606 25.9974 60.9767 25.9824C61.2547 25.9661 61.5334 26.0017 61.7984 26.0873C62.1006 26.1957 62.3689 26.3816 62.5765 26.6264C62.6202 26.6847 62.6668 26.743 62.7076 26.8013C62.7484 26.8596 62.7775 26.9149 62.8125 26.9732C62.8719 27.0821 62.9235 27.1951 62.967 27.3112C62.9868 27.3576 63.0034 27.4053 63.0165 27.454L63.0573 27.5735L63.133 27.8183C63.1855 27.9815 63.2409 28.1417 63.2875 28.3078C63.3749 28.6342 63.474 28.9606 63.5498 29.2927C64.1403 31.915 64.4171 34.5983 64.3744 37.2859C64.3744 38.6176 64.3103 39.9435 64.2142 41.2635C64.2284 41.7942 64.0492 42.3121 63.71 42.7205C63.4835 42.9525 63.197 43.117 62.8824 43.1955C62.6651 43.2524 62.4424 43.2866 62.218 43.2975C61.8246 43.315 61.5129 43.2975 61.1778 43.2975L60.1899 43.2829L56.2735 43.2071H56.0462C55.9957 43.2039 55.9451 43.2039 55.8947 43.2071C55.817 43.2166 55.7407 43.2352 55.6674 43.2625C55.5432 43.3186 55.4409 43.4138 55.376 43.5335C55.3209 43.6389 55.2732 43.7479 55.2332 43.8599C55.1691 44.0143 55.1166 44.1513 55.0467 44.3232C54.9146 44.6379 54.7747 44.9497 54.6271 45.2586C53.4273 47.6972 51.8388 49.9244 49.9239 51.853C49.6908 52.0949 49.4518 52.3309 49.2129 52.5669C49.0603 52.6852 48.9368 52.8367 48.8515 53.0098C48.8108 53.1497 48.8108 53.2983 48.8515 53.4382C48.915 53.6757 49.007 53.9047 49.1255 54.1201C49.4169 54.6475 49.7549 55.2216 50.0813 55.7898C50.4076 56.3581 50.7369 56.9554 51.0429 57.5557C51.1973 57.8617 51.3343 58.1735 51.4858 58.4998L51.5878 58.7475L51.6898 59.0156C51.7596 59.2199 51.8132 59.4294 51.85 59.6421C51.9511 60.1576 51.8911 60.6918 51.6781 61.172C51.5489 61.4424 51.363 61.6819 51.1332 61.8743C51.0279 61.9625 50.9158 62.0424 50.7981 62.1132L50.5825 62.2385C49.4169 62.9087 48.2338 63.5255 47.0332 64.0889C45.8195 64.6631 44.5742 65.168 43.3033 65.6013C42.668 65.8208 42.0211 66.015 41.3626 66.1841L41.1149 66.2482C41.0333 66.2686 40.9633 66.289 40.8235 66.3152C40.5589 66.3692 40.2873 66.38 40.0192 66.3473C39.7062 66.3086 39.4067 66.1968 39.145 66.0209C38.8974 65.8536 38.6887 65.6349 38.5331 65.3798C38.3126 65.001 38.1662 64.5836 38.1018 64.1501L37.9007 63.1797L37.5015 61.239L37.1023 59.2954C37.044 58.9224 37.0178 58.5698 36.974 58.3804V58.3308V58.3133C36.9928 58.3526 37.0185 58.3881 37.0498 58.4183C37.1114 58.4781 37.1879 58.5203 37.2713 58.5406C37.2923 58.5459 37.3143 58.5459 37.3354 58.5406L37.3529 58.561ZM37.2014 56.6465C37.2868 56.6422 37.3724 56.6422 37.4578 56.6465C37.556 56.6547 37.6534 56.6703 37.7492 56.6932C37.8663 56.7269 37.9796 56.7728 38.0872 56.8301C38.194 56.8926 38.292 56.9691 38.3786 57.0574C38.5249 57.2048 38.6416 57.3789 38.7225 57.5703C38.7516 57.6431 38.7778 57.7131 38.8011 57.783L38.8478 57.9666C38.9439 58.4212 38.9527 58.7213 39.0022 58.9952L39.3956 60.8893L39.7919 62.7864L39.9901 63.7363C40.0142 63.9524 40.0764 64.1626 40.1737 64.357C40.1868 64.3825 40.2057 64.4044 40.229 64.4211C40.2415 64.4241 40.2544 64.4241 40.2669 64.4211C40.3239 64.4296 40.3818 64.4296 40.4388 64.4211L40.6282 64.3745L40.8555 64.3162C41.4616 64.1569 42.0648 63.9733 42.6651 63.7655C43.8628 63.3546 45.0429 62.8708 46.2027 62.3405C47.3625 61.8102 48.5047 61.2186 49.6121 60.5921L49.8219 60.4726C49.851 60.4493 49.8743 60.4435 49.886 60.4289C49.9093 60.4122 49.9282 60.3903 49.9414 60.3648C49.9828 60.2387 49.9889 60.1036 49.9589 59.9743C49.9385 59.8646 49.9102 59.7565 49.8743 59.6509C49.8743 59.6013 49.8306 59.5314 49.8044 59.4615L49.7199 59.2575C49.6033 58.9661 49.4751 58.7009 49.3353 58.4212C49.0613 57.8617 48.7525 57.3022 48.4319 56.7427C48.1114 56.1832 47.785 55.6296 47.4528 54.9943C47.2596 54.6338 47.1137 54.2498 47.0186 53.852C46.965 53.6179 46.9406 53.3782 46.9458 53.1381C46.9549 52.8702 47.007 52.6055 47.1002 52.3542C47.2824 51.9274 47.5594 51.5477 47.9103 51.244C48.1376 51.0225 48.3649 50.801 48.5864 50.5737C50.3748 48.7971 51.862 46.7411 52.9894 44.4864C53.1264 44.195 53.2517 43.921 53.3741 43.6355C53.4352 43.4956 53.4964 43.3441 53.5547 43.1897C53.6281 42.9955 53.7168 42.8074 53.8199 42.6272C54.0878 42.1728 54.4972 41.8186 54.9855 41.619C55.2154 41.5241 55.4578 41.4633 55.7053 41.4383C55.8189 41.4383 55.9413 41.4208 56.0433 41.4208H56.3056L60.2278 41.517L61.2011 41.5345C61.5158 41.5345 61.8625 41.5345 62.119 41.5345C62.2171 41.531 62.3146 41.5183 62.4104 41.4966C62.4774 41.4762 62.4657 41.4733 62.4308 41.4966C62.3958 41.5199 62.4104 41.5403 62.4308 41.4733C62.4403 41.4311 62.4472 41.3882 62.4512 41.3451L62.4686 41.1149C62.5677 39.8269 62.6319 38.5418 62.6435 37.2596C62.6996 34.7107 62.4323 32.1649 61.848 29.6832C61.778 29.3918 61.6819 29.0771 61.6003 28.777C61.5566 28.6254 61.5041 28.4856 61.4575 28.3282L61.3846 28.1068L61.3497 27.996C61.34 27.9652 61.3283 27.935 61.3147 27.9057C61.303 27.8691 61.2874 27.8339 61.2681 27.8008L61.2448 27.76V27.7425C61.2215 27.725 61.2448 27.7425 61.2273 27.725C61.1788 27.7216 61.1301 27.7216 61.0816 27.725C60.9714 27.7342 60.8622 27.7527 60.7552 27.7804C60.4988 27.8416 60.1899 27.9494 59.8432 28.0455C59.4964 28.1417 59.1962 28.2175 58.8728 28.2962C58.2317 28.4565 57.5935 28.6109 56.9495 28.7595C56.3055 28.9081 55.679 29.0509 54.9709 29.1704L54.8165 29.1908H54.7378H54.6358C54.564 29.1951 54.492 29.1951 54.4202 29.1908C54.3399 29.1888 54.26 29.18 54.1812 29.1645C53.796 29.1014 53.4497 28.8927 53.2138 28.5817C53.0475 28.3456 52.9314 28.0778 52.8729 27.7949C52.8233 27.5764 52.8029 27.3753 52.7825 27.2326C52.616 25.9904 52.3391 24.7655 51.9549 23.5726C51.5692 22.3781 51.0817 21.2189 50.4979 20.1078C50.3522 19.8164 50.2066 19.5483 50.0434 19.2744C49.8157 18.9225 49.6445 18.5371 49.5363 18.1321C49.4725 17.8352 49.4815 17.5273 49.5626 17.2346C49.6389 16.9753 49.7624 16.7323 49.9268 16.5178C50.0555 16.3482 50.1988 16.1902 50.3552 16.0457C50.4921 15.9116 50.6466 15.7863 50.769 15.6844C51.7947 14.8393 52.8087 14.0321 53.8869 13.2366L54.292 12.9452L54.4464 12.8257C54.4879 12.7938 54.5268 12.7587 54.563 12.7208C54.67 12.6293 54.7447 12.5056 54.7757 12.3682C54.7782 12.2394 54.7336 12.114 54.6504 12.0156C54.6125 11.9719 54.5979 11.9428 54.5455 11.8816L54.3881 11.7009L54.0734 11.3425C52.3806 9.43409 50.4527 7.74802 48.3357 6.32457C47.8054 5.96906 47.2692 5.62228 46.7156 5.29591C46.4446 5.12982 46.1619 4.97245 45.8851 4.81218C45.8006 4.76264 45.7831 4.75972 45.7423 4.73641C45.7121 4.72396 45.6809 4.71421 45.649 4.70728C45.6023 4.69422 45.553 4.69422 45.5063 4.70728C45.3374 4.76963 45.1898 4.87882 45.0808 5.02202C44.996 5.11873 44.9191 5.222 44.8506 5.33088C44.7748 5.45036 44.6933 5.58439 44.6146 5.72135C44.294 6.27501 43.9823 6.84617 43.6705 7.4144C43.3587 7.98263 43.0556 8.55669 42.7758 9.12784C42.6117 9.49499 42.3926 9.83496 42.126 10.1361C41.9344 10.338 41.6978 10.4918 41.4354 10.5848C41.1533 10.6791 40.8504 10.6922 40.5612 10.6227C40.4402 10.5955 40.3214 10.5595 40.2057 10.5149L39.9872 10.4275C39.8385 10.3692 39.6957 10.3109 39.5442 10.2585C39.2528 10.1477 38.9614 10.0457 38.6496 9.94957C38.0454 9.75531 37.4355 9.59214 36.8196 9.46004C35.5717 9.19726 34.3051 9.03259 33.0314 8.96756L32.5506 8.94426C32.3315 8.93912 32.1135 8.90979 31.9008 8.85682C31.6111 8.77453 31.3511 8.61066 31.1519 8.38475C30.9798 8.17912 30.8545 7.93851 30.7847 7.67959C30.6913 7.29811 30.6443 6.90674 30.6448 6.51398C30.6448 6.18179 30.6245 5.87289 30.607 5.54943C30.572 4.90835 30.5283 4.26436 30.4671 3.62619C30.435 3.30857 30.4001 2.99094 30.3593 2.67914C30.3311 2.39803 30.2775 2.12006 30.199 1.84866C30.1708 1.7555 30.1327 1.66561 30.0854 1.58056C30.0475 1.52519 30.03 1.52518 30.0446 1.53684C30.0592 1.5485 30.0446 1.53684 29.998 1.53684L29.8144 1.56889L29.5783 1.61552C28.9489 1.73791 28.3253 1.8778 27.7076 2.03516C27.0898 2.19252 26.4778 2.36539 25.8717 2.55382C25.2627 2.74906 24.6566 2.95888 24.0651 3.18326C22.8869 3.62054 21.7482 4.1577 20.6615 4.78888C20.1308 5.10488 19.6208 5.45428 19.1346 5.835C19.018 5.93407 18.8927 6.02441 18.7791 6.1264L18.6071 6.27793C18.5489 6.32747 18.4789 6.38867 18.476 6.3945C18.4536 6.41538 18.4366 6.44138 18.4265 6.47027C18.4162 6.51731 18.4162 6.56601 18.4265 6.61305C18.476 6.84038 18.5605 7.05861 18.6771 7.25995C18.8053 7.50473 18.9685 7.76992 19.1491 8.038C19.4988 8.57418 19.8747 9.13076 20.2215 9.71647C20.4239 10.035 20.5966 10.3715 20.7372 10.7218C20.8323 10.967 20.8797 11.2281 20.8771 11.4911C20.8713 11.7998 20.7838 12.1014 20.6236 12.3653C20.4872 12.578 20.3181 12.7678 20.1224 12.9277L19.7406 13.2395C19.493 13.4377 19.2569 13.6504 19.0151 13.8543C18.0606 14.6952 17.163 15.5986 16.3284 16.5586C15.4934 17.5121 14.7381 18.5325 14.07 19.6095C13.7349 20.1428 13.4406 20.6994 13.1579 21.2589C13.0297 21.5503 12.8899 21.8241 12.7733 22.1126L12.5985 22.5439L12.4877 22.8091C12.4367 22.9236 12.3763 23.0338 12.3071 23.1384C12.0182 23.5681 11.5834 23.8787 11.0832 24.0126C10.8354 24.0785 10.5779 24.1002 10.3226 24.0767L9.82725 24.0242L7.87485 23.829L5.91665 23.6192C5.58737 23.5813 5.26099 23.5405 4.92588 23.4939L4.4276 23.4181C4.32069 23.401 4.21228 23.3951 4.10415 23.4006C3.92966 23.3973 3.75862 23.4497 3.61604 23.5504C3.47346 23.651 3.3668 23.7946 3.31155 23.9601C3.29115 24.0068 3.27948 24.0592 3.262 24.1058L3.22412 24.2778L3.14543 24.7527L2.99098 25.7085C2.79283 26.982 2.64422 28.2583 2.55388 29.5346C2.4641 30.8099 2.43979 32.0888 2.48103 33.3665C2.49852 34.0047 2.54223 34.6429 2.59177 35.2781L2.68503 36.2339L2.7433 36.7089L2.77243 36.9478C2.77243 37.0294 2.78995 37.1081 2.8016 37.1606C2.81501 37.3297 2.87224 37.4924 2.96768 37.6326C2.99487 37.6613 3.02757 37.6841 3.06383 37.6996C3.14077 37.7272 3.22123 37.7439 3.3028 37.7492C3.39605 37.7492 3.57087 37.7492 3.71657 37.7492H4.18863L5.15027 37.7201C5.79426 37.6968 6.44699 37.6647 7.07642 37.6181C7.20755 37.6181 7.43193 37.5889 7.63008 37.5889C7.85434 37.589 8.078 37.6125 8.2974 37.6589C8.5686 37.7232 8.8242 37.8411 9.0492 38.0056C9.28168 38.1575 9.48013 38.356 9.632 38.5884C9.75595 38.7868 9.85388 39.0003 9.9234 39.2237L10.072 39.6987C10.1653 40.0047 10.2702 40.3048 10.3634 40.6079C10.5703 41.2081 10.7976 41.8026 11.0453 42.3854C12.026 44.7234 13.3683 46.8926 15.0229 48.8137C15.2327 49.0526 15.4367 49.2945 15.6553 49.5247L15.9816 49.8802C16.1757 50.0822 16.3255 50.3223 16.4216 50.5854C16.5289 50.8941 16.5431 51.2274 16.4624 51.5441C16.3991 51.7835 16.301 52.0123 16.171 52.2231C15.9816 52.5251 15.7764 52.8169 15.5562 53.0973L13.1609 56.2182L12.5781 56.9991L12.4294 57.1944C12.3741 57.2643 12.3624 57.2934 12.3245 57.3401C12.2704 57.4238 12.2245 57.5126 12.1876 57.6052C12.1272 57.7651 12.1121 57.9385 12.1439 58.1064C12.1776 58.2805 12.2571 58.4424 12.3741 58.5756C12.402 58.6079 12.4321 58.6381 12.4644 58.6659L12.6392 58.8175L13.0035 59.1293C13.2512 59.3332 13.496 59.5372 13.7466 59.7354C14.2449 60.1346 14.7519 60.5221 15.2706 60.901C16.2999 61.6421 17.3786 62.3119 18.4993 62.9058C19.0559 63.1972 19.627 63.4886 20.204 63.7305C20.4954 63.8587 20.7868 63.9782 21.0782 64.0947L21.1889 64.1385H21.2122H21.288C21.369 64.1435 21.4504 64.1376 21.5299 64.121C21.7064 64.0901 21.8726 64.016 22.0136 63.9053C22.0632 63.8667 22.1065 63.8205 22.1418 63.7684C22.2059 63.6635 22.2817 63.5265 22.3575 63.3895C22.6489 62.83 22.9606 62.2502 23.2579 61.6732L25.0587 58.1443C25.1799 57.9313 25.3288 57.7353 25.5016 57.5615C25.695 57.3668 25.9221 57.2089 26.1719 57.0953C26.6157 56.9071 27.0993 56.832 27.5793 56.8767C27.6842 56.8767 27.7833 56.8942 27.8707 56.9088L28.1126 56.9379C28.2641 56.9554 28.404 56.9787 28.573 56.9933C28.8819 57.0254 29.1908 57.0487 29.5026 57.0632C31.9998 57.2089 34.5671 56.8593 37.2014 56.6553V56.6465Z"
        fill="#5F5F5F" />
</svg>