<svg width="117" height="108" viewBox="0 0 117 108" fill="none" xmlns="http://www.w3.org/2000/svg">
    <path
        d="M64.6296 13.9559C65.5829 7.23836 57.2765 2.4476 51.1624 6.31319C46.2349 -1.41397 32.5344 -0.0784806 31.4966 10.2633C17.241 8.09115 11.7463 17.0452 13.6047 28.7345C1.04251 29.6596 -3.43449 45.13 7.62326 51.747C0.0449377 55.5844 0.00873542 68.2994 12.4502 70.9824C6.48088 77.2132 10.258 90.958 23.9545 89.4858C22.4702 99.8477 36.5689 107.237 46.7337 91.0304C57.6506 73.6212 68.4751 44.6996 68.4751 44.6996L64.6296 13.9559Z"
        fill="white" />
    <path
        d="M63.6685 13.9479V13.3002L63.6364 12.7773L63.564 12.2705L63.4553 11.7757C63.2822 11.1269 63.0109 10.5083 62.6509 9.94147C61.9122 8.79604 60.8876 7.86299 59.6783 7.23435C58.4591 6.59076 57.1065 6.24087 55.7282 6.21263C54.3237 6.19785 52.9347 6.50758 51.6695 7.11769C51.4726 7.25239 51.2313 7.30583 50.996 7.26686C50.7606 7.22788 50.5494 7.09954 50.4065 6.90856L50.3421 6.82003C49.163 5.26052 47.562 4.0713 45.7284 3.39293C43.9074 2.7162 41.9414 2.5262 40.0245 2.8418C38.1456 3.12439 36.3981 3.97501 35.0165 5.27944C33.6584 6.65598 32.764 8.42227 32.4582 10.3317C32.4368 10.5823 32.3167 10.8141 32.1243 10.9763C31.932 11.1385 31.6832 11.2176 31.4325 11.1965H31.3682C28.8937 10.9095 26.3897 11.0113 23.9467 11.4982C22.7841 11.7509 21.6601 12.1567 20.6041 12.7049C19.5786 13.2498 18.6514 13.9622 17.8607 14.8127C17.0739 15.6715 16.4228 16.6454 15.93 17.7008C15.4312 18.7914 15.0652 19.938 14.8399 21.1159C14.3964 23.571 14.3057 26.0767 14.5704 28.5575C14.5944 28.6771 14.5947 28.8003 14.5711 28.9201C14.5475 29.0398 14.5006 29.1538 14.433 29.2554C14.3653 29.357 14.2784 29.4442 14.177 29.5122C14.0757 29.5802 13.9619 29.6275 13.8423 29.6516H13.786H13.6894C11.235 29.9538 8.91167 30.9282 6.97595 32.4673C5.10047 33.9874 3.74283 36.052 3.09025 38.3763C2.44602 40.6842 2.58753 43.1407 3.4925 45.3593C4.47261 47.6129 6.08498 49.5341 8.13442 50.8902C8.24274 50.9499 8.33824 51.0303 8.41547 51.1269C8.4927 51.2235 8.55014 51.3343 8.5845 51.4531C8.61887 51.5719 8.62949 51.6963 8.61576 51.8192C8.60203 51.9421 8.56422 52.0611 8.50449 52.1693C8.42484 52.3125 8.30992 52.433 8.17062 52.5193L8.07408 52.5756C6.40423 53.5968 5.11119 55.1326 4.3895 56.952C4.03499 57.8425 3.8324 58.7862 3.79016 59.7437C3.737 60.6927 3.84028 61.6439 4.09587 62.5594C4.62454 64.4228 5.72305 66.0741 7.23741 67.2818C8.01546 67.9125 8.86299 68.4523 9.76352 68.8908C10.699 69.3334 11.6673 69.7032 12.6597 69.9969C12.7819 70.0183 12.8986 70.0636 13.0032 70.1302C13.1078 70.1968 13.1982 70.2835 13.2693 70.3851C13.3403 70.4868 13.3905 70.6015 13.4171 70.7226C13.4436 70.8438 13.446 70.969 13.424 71.091C13.3946 71.2493 13.3254 71.3975 13.2228 71.5215L13.1545 71.6059C11.8148 73.2759 11.059 75.3386 11.0024 77.4787C10.9301 79.6048 11.49 81.7046 12.6114 83.5124C13.7397 85.3035 15.4032 86.694 17.366 87.4866C18.3728 87.8928 19.4249 88.1764 20.4995 88.3313C21.6115 88.4756 22.7334 88.5308 23.8542 88.4963C23.9744 88.478 24.097 88.4836 24.215 88.5127C24.333 88.5418 24.4442 88.5939 24.542 88.666C24.6399 88.7381 24.7226 88.8288 24.7854 88.9329C24.8482 89.037 24.8899 89.1524 24.9081 89.2726C24.9081 89.3249 24.9081 89.3731 24.9081 89.4254V89.5904C24.8651 90.3862 24.9056 91.1843 25.0288 91.9717C25.164 92.7367 25.3923 93.4824 25.7086 94.1921C26.0244 94.8883 26.4301 95.5401 26.9153 96.1309C27.405 96.71 27.9659 97.2249 28.5846 97.6635C29.2099 98.0833 29.8856 98.4226 30.5958 98.6731C31.3177 98.9093 32.0664 99.0539 32.8243 99.1035C34.3868 99.1573 35.9404 98.8461 37.3616 98.1944C38.8392 97.5123 40.1973 96.5969 41.3841 95.4833C42.6093 94.3424 43.7133 93.078 44.6785 91.7102C45.6399 90.3385 46.5208 88.7979 47.4339 87.3136C47.8844 86.5655 48.2987 85.7891 48.7372 85.0329C49.1756 84.2767 49.61 83.5124 50.0163 82.7361C53.363 76.5656 56.4522 70.2262 59.3243 63.7983C60.7643 60.5803 62.1775 57.3516 63.564 54.1122C64.9356 50.8701 66.2791 47.6038 67.5864 44.3376L67.5301 44.7962L63.6685 13.9479ZM65.5953 13.9479L69.4327 44.5709C69.4525 44.7244 69.4345 44.8804 69.3804 45.0255C68.1737 48.3641 66.8825 51.6625 65.5631 54.9529C64.2438 58.2433 62.8922 61.5135 61.4683 64.7637C58.6525 71.26 55.6317 77.6919 52.289 83.975C51.8867 84.7795 51.4282 85.5357 50.9978 86.3161C50.5674 87.0964 50.141 87.8768 49.6824 88.6411C48.7492 90.1736 47.8844 91.7062 46.8265 93.2388C45.7577 94.7626 44.5352 96.1724 43.1781 97.4463C41.7834 98.7566 40.1877 99.8348 38.4517 100.64C36.6505 101.479 34.6774 101.882 32.6916 101.819C31.6852 101.757 30.6905 101.569 29.731 101.26C28.776 100.921 27.8708 100.456 27.04 99.8758C26.2219 99.2801 25.492 98.5718 24.8719 97.772C24.2665 96.9714 23.7788 96.0883 23.4238 95.1494L23.1825 94.4415L23.0055 93.7174C22.9467 93.4765 22.9037 93.2319 22.8767 92.9854C22.836 92.743 22.8092 92.4986 22.7963 92.2532C22.7342 91.2794 22.8005 90.3016 22.9934 89.345L24.0513 90.4391C22.8006 90.6436 21.5323 90.7191 20.2662 90.6644C18.9654 90.5797 17.6823 90.3171 16.4529 89.884C15.1968 89.4363 14.0227 88.7854 12.9775 87.9573C11.9315 87.1166 11.0341 86.1063 10.3226 84.9686C8.90886 82.6932 8.26307 80.024 8.48035 77.354C8.58809 76.0294 8.92139 74.733 9.46586 73.5206C10.0121 72.3092 10.7895 71.2161 11.7546 70.3026L12.2454 71.9116C11.0864 71.7295 9.94795 71.4345 8.8464 71.0307C7.72208 70.5934 6.65931 70.012 5.68474 69.3011C4.68626 68.5713 3.81161 67.6858 3.09428 66.6784C2.36843 65.6555 1.82414 64.5152 1.48529 63.3076C1.1511 62.0974 1.02728 60.8389 1.11925 59.5868C1.20971 58.3346 1.52302 57.1086 2.04441 55.9666C2.55986 54.8328 3.27365 53.8003 4.15218 52.9175C5.02855 52.0503 6.05832 51.3533 7.18914 50.862L7.1288 52.5515C5.85171 51.8781 4.6818 51.0186 3.65742 50.0013C2.61377 48.9511 1.76281 47.7258 1.14338 46.381C0.519766 45.024 0.143787 43.5663 0.0331823 42.077C-0.0738674 40.5871 0.0785662 39.09 0.483696 37.6523C1.29359 34.7808 3.03027 32.2579 5.42328 30.4762C6.59973 29.6024 7.90898 28.9233 9.30093 28.465C10.6704 28.02 12.0971 27.7761 13.5366 27.7409L12.6557 28.8551C12.0318 26.1706 11.9118 23.3937 12.3017 20.6654C12.5143 19.2583 12.9119 17.8855 13.4843 16.5826C14.0821 15.2501 14.8978 14.0266 15.8978 12.9623C16.8959 11.8922 18.0786 11.0106 19.3893 10.3598C20.6711 9.72069 22.04 9.27342 23.452 9.03238C26.177 8.59956 28.9589 8.68146 31.6538 9.27377L30.5516 10.1345C30.5937 8.9335 30.8314 7.74738 31.2555 6.62293C31.7036 5.4732 32.3625 4.41729 33.1984 3.50954C34.0405 2.60248 35.0359 1.85086 36.1388 1.28913C37.2319 0.73919 38.4025 0.359412 39.6102 0.162872C42.0084 -0.223957 44.4672 0.0816265 46.6978 1.04377C47.8073 1.52462 48.8347 2.17611 49.7428 2.97457C50.6426 3.77331 51.4026 4.71682 51.9913 5.76614L50.6599 5.46848C52.1139 4.37705 53.8636 3.75033 55.6799 3.67045C57.5177 3.58197 59.3445 3.99937 60.9614 4.87719C62.6042 5.74775 63.9532 7.08417 64.8391 8.71867C65.2811 9.54448 65.5739 10.4418 65.7039 11.3695C65.724 11.5987 65.7522 11.832 65.7642 12.0613C65.7763 12.2906 65.7642 12.5239 65.7642 12.7532C65.7642 12.9824 65.728 13.2158 65.7039 13.429L65.5953 13.9479Z"
        fill="#101010" />
    <path
        d="M61.5368 21.1682C62.5504 14.2858 68.4112 8.58996 74.2759 8.79109C80.024 8.98417 82.7472 12.0091 83.9781 15.5529C86.5686 12.3711 91.3593 11.2649 94.6658 13.2118C98.5394 15.4885 97.932 20.0942 96.5 22.3025C99.5853 21.1682 107.212 22.8858 109.372 29C111.637 35.3997 107.011 41.6225 104.722 42.5597C109.999 43.3079 115.808 46.2282 115.084 53.0744C114.42 59.3696 107.876 62.5353 104.806 63.2191C109.259 71.61 102.675 79.4015 93.6602 78.8665C97.9159 89.8478 90.5468 97.3699 80.0642 93.641C80.3136 99.5179 73.9702 106.863 63.4434 101.087C62.5866 106.36 55.7123 107.663 52.2208 105.95C47.5064 103.637 45.4469 99.003 46.2112 93.3715C46.6617 90.0168 48.9786 87.2574 49.586 82.6516C50.2538 77.6195 48.1018 76.3002 49.6745 71.252C51.4525 65.5562 55.3744 66.6583 57.5385 59.1041C58.6929 55.0817 56.199 50.3633 56.8747 45.5403C57.4741 41.2685 61.1104 40.4922 62.7516 35.3555C64.3927 30.2188 60.6639 27.0973 61.5368 21.1682Z"
        fill="white" />
    <path
        d="M60.2218 20.9671C60.4441 19.5332 60.8385 18.1313 61.3964 16.7918C61.9707 15.4628 62.7055 14.2092 63.5846 13.0589C64.4656 11.8959 65.5086 10.8651 66.6819 9.99781C67.8646 9.09849 69.1905 8.40496 70.6038 7.94636L71.7019 7.66079C72.072 7.58436 72.4541 7.54411 72.8282 7.4878C73.5759 7.41325 74.3291 7.41325 75.0768 7.4878C76.5502 7.61063 77.9933 7.97485 79.3486 8.56584C80.7289 9.20234 81.9441 10.1479 82.9004 11.3293C83.8143 12.4821 84.4886 13.8059 84.8835 15.223L83.2263 14.9294C84.4606 13.2289 86.2161 11.9776 88.2262 11.3655C90.2963 10.6859 92.5425 10.7788 94.5495 11.6269C95.5837 12.085 96.4999 12.7729 97.2285 13.6382C97.9651 14.5142 98.4662 15.5636 98.6846 16.6872C98.884 17.7504 98.8644 18.8431 98.6272 19.8985C98.39 20.9539 97.94 21.9498 97.3049 22.8255L96.1625 21.3975C96.8713 21.1228 97.6196 20.9639 98.3789 20.9269C98.7489 20.8826 99.0989 20.9269 99.4649 20.9067C99.831 20.8866 100.173 20.9591 100.531 20.9832C101.945 21.1584 103.321 21.5576 104.61 22.1658C105.927 22.7751 107.127 23.6126 108.153 24.6396C108.678 25.1602 109.145 25.7361 109.545 26.3572C109.734 26.679 109.923 26.9968 110.108 27.3186L110.551 28.3443C111.06 29.7204 111.316 31.1771 111.307 32.6443C111.275 34.0884 111.003 35.5171 110.503 36.8719C110.021 38.2043 109.344 39.4571 108.491 40.5887C108.387 40.7335 108.278 40.8676 108.166 40.9909L107.812 41.3932C107.582 41.6627 107.309 41.908 107.051 42.1615C106.487 42.7048 105.825 43.1374 105.1 43.4366L104.867 41.5903C106.271 41.7094 107.656 41.9929 108.994 42.435C110.383 42.8859 111.687 43.5657 112.852 44.4462C114.082 45.3816 115.06 46.6094 115.696 48.0182C116.303 49.4329 116.566 50.9712 116.464 52.5073C116.4 54.0234 116.018 55.5091 115.342 56.8676C114.657 58.1968 113.736 59.3897 112.622 60.3873C111.552 61.3487 110.355 62.1605 109.067 62.8008C108.745 62.9576 108.419 63.0944 108.097 63.2432C107.775 63.3921 107.437 63.5047 107.1 63.6173C106.423 63.8566 105.727 64.0396 105.02 64.1644L105.664 62.7726C106.866 64.6223 107.508 66.7809 107.51 68.9873C107.485 71.2689 106.709 73.4786 105.302 75.2744C103.917 77.0272 102.069 78.3578 99.9678 79.1159C97.935 79.8571 95.7545 80.1011 93.6082 79.8279L94.5656 78.5165C95.5992 80.6922 96.1351 83.0708 96.1343 85.4794C96.1208 86.7357 95.9034 87.9814 95.4908 89.1681C95.0652 90.3872 94.4083 91.5126 93.5559 92.4826C92.6979 93.459 91.6476 94.2477 90.4707 94.7995C89.3199 95.3381 88.0839 95.6716 86.8183 95.785C84.3929 95.9697 81.96 95.5423 79.7428 94.5421L81.034 93.5928C81.2648 95.7219 80.7732 97.8667 79.6382 99.6827C78.5082 101.537 76.8013 102.97 74.7791 103.762C72.7795 104.521 70.6027 104.684 68.5121 104.232C66.542 103.81 64.6669 103.027 62.9812 101.923L64.3971 101.231C64.2748 102.547 63.7636 103.796 62.9289 104.819C62.0977 105.825 61.0367 106.615 59.8356 107.124C58.6752 107.627 57.4341 107.917 56.1712 107.981C54.8839 108.062 53.5935 107.882 52.378 107.45L51.9074 107.257C51.7614 107.196 51.619 107.126 51.481 107.048C51.2115 106.899 50.942 106.754 50.6765 106.597L49.9042 106.083C49.6548 105.901 49.4175 105.68 49.1721 105.511C48.2186 104.712 47.4032 103.76 46.7586 102.696C45.5242 100.581 44.9134 98.1599 44.9968 95.7126C44.9968 95.4149 45.0209 95.1213 45.037 94.8236C45.0531 94.526 45.0772 94.2364 45.1215 93.9468C45.1807 93.3473 45.2842 92.753 45.4312 92.1688C45.7484 91.0479 46.1519 89.9532 46.6379 88.8945C47.539 86.8591 48.3113 84.872 48.5446 82.8085C48.6632 81.7876 48.6632 80.7563 48.5446 79.7353C48.44 78.7217 48.1625 77.6919 47.9613 76.5174C47.7535 75.2918 47.7467 74.0405 47.9412 72.8127L48.1182 71.9117C48.1906 71.618 48.267 71.3284 48.3475 71.0347C48.4279 70.7411 48.5486 70.4555 48.6492 70.1619C48.7015 70.0171 48.7497 69.8722 48.8101 69.7274L49.0072 69.3011C49.1344 69.0099 49.2836 68.7288 49.4537 68.4604C49.6094 68.1806 49.7841 67.9118 49.9766 67.6559C50.157 67.3976 50.3546 67.1517 50.5679 66.9198L50.8816 66.5698L51.2034 66.252C52.0683 65.4073 52.913 64.7396 53.6169 64.0115C54.3175 63.3009 54.9049 62.4869 55.3586 61.598C55.5945 61.1439 55.804 60.6765 55.9861 60.1982C56.0867 59.9649 56.1511 59.7075 56.2355 59.4581C56.32 59.2087 56.4045 58.9513 56.4568 58.722C56.6787 57.7679 56.7358 56.783 56.6257 55.8097C56.5292 54.788 56.3281 53.7301 56.1189 52.644C55.9097 51.558 55.6885 50.4397 55.5557 49.2772C55.4108 48.0753 55.4013 46.861 55.5276 45.657C55.6662 44.3503 56.1144 43.0955 56.8349 41.9966C57.5122 41.0437 58.2598 40.1429 59.0714 39.3015C59.7665 38.552 60.3726 37.7246 60.8775 36.8357C61.3518 35.9636 61.6973 35.0274 61.9032 34.0562C62.0713 33.0985 62.0604 32.1178 61.871 31.164C61.6425 30.1205 61.3606 29.0894 61.0263 28.0748C60.6585 26.9554 60.3893 25.8059 60.2218 24.6396C60.0656 23.4204 60.0656 22.1863 60.2218 20.9671ZM62.8485 21.3693C62.7015 22.3548 62.6772 23.3546 62.7761 24.346C62.895 25.3808 63.0968 26.4045 63.3794 27.4071C63.657 28.461 63.9828 29.5671 64.1839 30.7618C64.4091 31.9918 64.4091 33.2525 64.1839 34.4826C63.9442 35.6861 63.5381 36.8504 62.9772 37.9419C62.4235 39.0037 61.7573 40.003 60.9901 40.9226C60.2985 41.7115 59.6589 42.5446 59.0754 43.4165C58.5852 44.1886 58.2885 45.0676 58.2106 45.9788C57.9531 47.9297 58.283 50.0013 58.6128 52.2136C58.7818 53.3118 58.9547 54.4461 59.0151 55.6327C59.1136 56.8723 59.009 58.1196 58.7053 59.3253C58.5324 59.9086 58.3473 60.4476 58.1543 61.0068C57.9462 61.5673 57.7085 62.1165 57.4423 62.6519C56.9126 63.7507 56.236 64.7724 55.431 65.6889C54.6266 66.602 53.7617 67.3502 53.0739 68.1024C52.4106 68.7965 51.8669 69.5958 51.4649 70.4676L51.312 70.7894C51.2638 70.902 51.2276 71.0187 51.1873 71.1353C51.1069 71.3686 51.0104 71.5898 50.942 71.8352L50.7328 72.5633L50.5719 73.2873C50.3931 74.2502 50.3551 75.2339 50.4593 76.2076C50.5558 77.2293 50.773 78.3717 50.8213 79.5744C50.8754 80.7652 50.7931 81.9583 50.5759 83.1303C50.3691 84.2817 50.0691 85.4144 49.6789 86.5172C49.2767 87.6073 48.8503 88.6612 48.4279 89.6709C47.9963 90.634 47.6529 91.6343 47.4022 92.6595C47.2884 93.1539 47.2184 93.6573 47.193 94.1639C47.1669 94.4232 47.1549 94.6837 47.1568 94.9443C47.1568 95.2018 47.1367 95.4632 47.1568 95.7166C47.1758 97.7327 47.7627 99.7026 48.8503 101.4C49.3951 102.208 50.0612 102.927 50.8253 103.532C51.0224 103.673 51.2276 103.83 51.4126 103.967L52.0361 104.369L52.6917 104.715C52.791 104.773 52.8962 104.82 53.0055 104.856L53.3032 104.98C54.1912 105.271 55.1258 105.392 56.0585 105.338C57.0212 105.299 57.9715 105.108 58.8743 104.771C59.7386 104.454 60.5257 103.956 61.1832 103.311C61.8209 102.655 62.2817 101.848 62.5226 100.966C62.5606 100.834 62.6242 100.711 62.7099 100.603C62.7955 100.496 62.9016 100.406 63.0218 100.339C63.1421 100.273 63.2744 100.231 63.411 100.215C63.5475 100.2 63.6858 100.212 63.8179 100.25L63.9305 100.294C65.521 101.043 67.2099 101.562 68.9465 101.835C69.7729 101.95 70.6097 101.969 71.4404 101.891C72.2452 101.813 73.0348 101.62 73.7855 101.32C75.281 100.704 76.5643 99.6655 77.4782 98.3312C78.4314 96.9755 78.9987 95.3864 79.1193 93.7336C79.0993 93.4867 79.1777 93.242 79.3375 93.0528C79.4972 92.8637 79.7254 92.7454 79.9721 92.7239C80.0788 92.7129 80.1867 92.7225 80.2899 92.752L80.4105 92.7843C82.3974 93.3721 84.4827 93.5513 86.5408 93.3112C87.506 93.1792 88.4434 92.8912 89.3163 92.4584C89.7409 92.2486 90.1449 91.9995 90.523 91.7143C90.8928 91.4235 91.2373 91.1019 91.5528 90.7529C92.8217 89.2615 93.554 87.3878 93.6324 85.4312C93.7229 83.3424 93.434 81.2544 92.7796 79.2687C92.7174 79.1285 92.6907 78.9752 92.7019 78.8222C92.7131 78.6693 92.7618 78.5215 92.8437 78.3918C92.9257 78.2622 93.0383 78.1547 93.1716 78.0789C93.305 78.0032 93.4549 77.9615 93.6082 77.9574H93.7168C95.5445 77.9382 97.3508 77.5625 99.0345 76.8513C100.655 76.1604 102.074 75.0715 103.162 73.6856C104.208 72.3177 104.826 70.67 104.935 68.9511C105.011 67.1557 104.674 65.3668 103.95 63.7219C103.889 63.615 103.85 63.497 103.834 63.3748C103.819 63.2526 103.827 63.1286 103.86 63.0098C103.892 62.891 103.948 62.7798 104.023 62.6825C104.099 62.5852 104.193 62.5037 104.3 62.4428C104.354 62.4116 104.41 62.386 104.469 62.3664L104.594 62.3261C105.77 61.9528 106.899 61.4425 107.956 60.8056C109.013 60.1875 109.991 59.4432 110.869 58.5892C111.717 57.7764 112.419 56.824 112.944 55.7735C113.434 54.7374 113.708 53.6124 113.749 52.4671C113.835 51.3407 113.661 50.2095 113.242 49.1606C112.793 48.1241 112.104 47.2098 111.231 46.4937C110.304 45.73 109.266 45.1115 108.153 44.6594C106.993 44.1814 105.789 43.8189 104.557 43.5774C104.368 43.5581 104.188 43.4813 104.043 43.3572C103.898 43.2332 103.794 43.0679 103.746 42.8834C103.697 42.6988 103.706 42.5039 103.771 42.3246C103.837 42.1453 103.955 41.9901 104.111 41.8799L104.328 41.727C104.421 41.6627 104.513 41.6024 104.61 41.5461L104.907 41.2967C105.015 41.2104 105.116 41.1162 105.209 41.0151C105.312 40.9195 105.41 40.8188 105.503 40.7134C105.688 40.4921 105.885 40.283 106.054 40.0376L106.315 39.6836L106.557 39.3095C107.198 38.3079 107.704 37.2259 108.061 36.0916C108.42 34.9872 108.606 33.8338 108.612 32.6725C108.596 31.5366 108.392 30.4111 108.009 29.3418C107.24 27.2421 105.551 25.5567 103.479 24.4666C102.433 23.9169 101.312 23.5214 100.153 23.2921C99.051 23.0434 97.909 23.031 96.8021 23.2559C96.5662 23.3467 96.3041 23.3405 96.0727 23.2388C95.8414 23.1371 95.6597 22.948 95.5672 22.7128C95.5207 22.5928 95.4992 22.4645 95.504 22.3359C95.5089 22.2072 95.5399 22.0809 95.5953 21.9647L95.6597 21.8279C96.337 20.4161 96.5129 18.8157 96.1585 17.2906C95.9712 16.5935 95.6275 15.9483 95.1535 15.404C94.6796 14.8596 94.0878 14.4305 93.4232 14.149C91.9819 13.5485 90.3825 13.441 88.8738 13.8433C87.2893 14.2314 85.8429 15.05 84.6945 16.2085C84.5364 16.4067 84.3062 16.5341 84.0543 16.5627C83.8025 16.5914 83.5495 16.519 83.351 16.3614C83.2311 16.2677 83.1358 16.1462 83.0734 16.0074L83.0332 15.9148C82.7936 15.3604 82.5167 14.8229 82.2046 14.3059C81.8933 13.8038 81.535 13.3323 81.1346 12.898C80.3466 12.0565 79.3861 11.3952 78.3189 10.9592C77.2092 10.5286 76.0366 10.2827 74.8475 10.2311C74.2685 10.1917 73.6872 10.2011 73.1098 10.2593C72.8282 10.3116 72.5426 10.3397 72.2651 10.4041L71.4324 10.6334C69.1766 11.4595 67.2035 12.9122 65.7446 14.8207C64.9922 15.7777 64.3599 16.8233 63.8621 17.9341C63.3894 19.035 63.0492 20.1882 62.8485 21.3693Z"
        fill="#101010" />
    <path
        d="M48.9906 21.9769C48.1861 21.0396 47.3213 20.3236 46.3197 20.0501C45.8038 19.9083 45.2698 19.8433 44.7349 19.857C44.2368 19.88 43.7479 19.9988 43.2948 20.207C42.2953 20.6955 41.4255 21.4136 40.7567 22.3027C40.3925 22.7671 40.0631 23.2579 39.7711 23.7709L39.3045 24.6156C39.1396 24.9173 38.9626 25.215 38.7856 25.5086C38.0709 26.7053 37.2511 27.836 36.336 28.8874C35.8579 29.4278 35.3432 29.9345 34.7954 30.4039C34.213 30.8951 33.5759 31.3176 32.8968 31.663C32.1441 32.0379 31.3229 32.2555 30.4833 32.3026C29.7154 32.3404 28.9461 32.2686 28.1985 32.0894C27.4204 31.9055 26.6854 31.5721 26.0344 31.1079C25.4208 30.669 24.8781 30.1386 24.4255 29.5351C24.3479 29.4345 24.291 29.3196 24.2579 29.197C24.2248 29.0744 24.2162 28.9465 24.2327 28.8206C24.2491 28.6946 24.2902 28.5732 24.3537 28.4632C24.4171 28.3532 24.5017 28.2568 24.6024 28.1795C24.7835 28.0395 25.0085 27.9687 25.237 27.9797C25.4656 27.9908 25.6827 28.083 25.8494 28.2398C26.2516 28.6377 26.7031 28.9824 27.1929 29.2656C27.6538 29.5113 28.1529 29.6772 28.6692 29.7563C29.2128 29.8339 29.764 29.8447 30.3103 29.7885C30.7888 29.714 31.2512 29.5589 31.678 29.33C32.6652 28.738 33.5452 27.9831 34.2805 27.0975C35.0897 26.1607 35.8215 25.1599 36.4687 24.1048C36.6296 23.8353 36.7945 23.5698 36.9474 23.3003L37.4542 22.4274C37.8261 21.8045 38.2457 21.2115 38.7092 20.6535C39.6713 19.4574 40.9152 18.519 42.3294 17.9222C43.0907 17.6208 43.9042 17.4731 44.7228 17.4878C45.1112 17.4997 45.4983 17.5387 45.8813 17.6044C46.2687 17.6793 46.6494 17.7856 47.0196 17.9222C47.759 18.1964 48.441 18.6056 49.0309 19.129C49.5742 19.6182 50.0588 20.169 50.4749 20.7701C50.6252 20.9772 50.6871 21.2354 50.6471 21.488C50.6071 21.7407 50.4685 21.9671 50.2617 22.1176C50.0672 22.2581 49.8276 22.3215 49.5891 22.2955C49.3506 22.2695 49.1302 22.156 48.9705 21.9769H48.9906Z"
        fill="#101010" />
    <path
        d="M46.75 31.852C45.9875 32.3629 45.3895 33.0838 45.0284 33.9276C44.8574 34.3353 44.7489 34.7666 44.7066 35.2067C44.6828 35.4311 44.6747 35.6569 44.6825 35.8825C44.6906 36.0777 44.7175 36.2717 44.7629 36.4617C45.0319 37.3825 45.4564 38.2504 46.0179 39.0281C46.6052 39.9211 47.2609 40.8422 47.8803 41.876C48.206 42.4126 48.4871 42.9749 48.721 43.5574C48.8377 43.8631 48.9382 44.1929 49.0308 44.5188L49.1313 45.0376L49.1756 45.2991V45.5726C49.1756 45.7536 49.1756 45.9387 49.1957 46.1197C49.2158 46.3007 49.1715 46.4495 49.1595 46.6185C49.1312 46.9443 49.0829 47.2681 49.0147 47.5879C48.8864 48.2238 48.6867 48.8432 48.4193 49.4342C47.8976 50.5873 47.1681 51.6344 46.2673 52.5234C45.3917 53.3824 44.3891 54.1015 43.2947 54.6554C43.1809 54.7118 43.0571 54.7453 42.9304 54.7538C42.8036 54.7623 42.6764 54.7457 42.5561 54.705C42.4358 54.6643 42.3247 54.6001 42.2292 54.5164C42.1336 54.4326 42.0556 54.3309 41.9995 54.2169C41.9007 54.0111 41.878 53.777 41.9354 53.5561C41.9929 53.3352 42.1267 53.1418 42.3132 53.0102C43.9779 51.8949 45.2808 50.3179 46.0622 48.4728C46.2316 48.0345 46.3569 47.5804 46.4363 47.1173C46.4776 46.8887 46.5031 46.6575 46.5127 46.4254C46.5127 46.3128 46.5328 46.184 46.5127 46.0835C46.4926 45.9829 46.5127 45.8904 46.4926 45.7938C46.4524 45.0215 46.026 44.1406 45.5151 43.2557C45.0043 42.3708 44.3526 41.4616 43.7452 40.46C43.0281 39.397 42.5215 38.2063 42.2529 36.9525C42.2088 36.5868 42.2008 36.2176 42.2288 35.8503C42.24 35.5155 42.2763 35.1821 42.3374 34.8528C42.4481 34.1842 42.6654 33.5377 42.981 32.9381C43.6135 31.7546 44.5972 30.7962 45.7967 30.1947C46.0212 30.091 46.277 30.0774 46.5113 30.1567C46.7456 30.236 46.9404 30.4023 47.0557 30.6211C47.1554 30.8253 47.1801 31.0579 47.1257 31.2784C47.0713 31.499 46.9412 31.6935 46.7581 31.8278L46.75 31.852Z"
        fill="#101010" />
    <path
        d="M34.3892 42.2862C33.9617 42.9213 33.4153 43.4676 32.7803 43.8952C32.1648 44.3115 31.4983 44.6468 30.7972 44.8928C29.5183 45.315 28.2084 45.6365 26.8793 45.8541C25.7272 46.0334 24.6008 46.3507 23.5246 46.7994C22.5643 47.2438 21.7588 47.9653 21.2117 48.871V48.8991C21.144 49.0069 21.0558 49.1003 20.9519 49.1738C20.8481 49.2473 20.7308 49.2997 20.6067 49.3277C20.4826 49.3557 20.3541 49.3589 20.2288 49.3372C20.1034 49.3154 19.9836 49.269 19.8762 49.2008C19.6949 49.0862 19.5569 48.9144 19.4841 48.7127C19.4112 48.5109 19.4077 48.2906 19.474 48.0866C19.7113 47.3544 20.0823 46.6725 20.5681 46.0754C21.0694 45.4746 21.6726 44.9667 22.35 44.575C23.6058 43.8994 24.9652 43.4373 26.3725 43.2074C27.6758 42.958 28.9147 42.7769 30.0329 42.4833C31.0985 42.24 32.0903 41.7448 32.9251 41.0393V41.0191C33.1168 40.8474 33.3688 40.7586 33.6258 40.7721C33.8829 40.7857 34.1241 40.9006 34.2967 41.0915C34.4445 41.2512 34.534 41.4559 34.5508 41.6728C34.5676 41.8896 34.5106 42.1058 34.3892 42.2862Z"
        fill="#101010" />
    <path
        d="M23.5609 56.4292C25.6837 56.2111 27.8248 56.2421 29.9405 56.5217C31.0675 56.6777 32.1687 56.9834 33.2148 57.4308C34.3737 57.9217 35.3894 58.698 36.1673 59.6874C36.8771 60.6635 37.3746 61.7775 37.6274 62.9577C37.8889 64.0598 38.0297 65.0936 38.1785 66.0509C38.3211 66.9729 38.568 67.8758 38.9146 68.742C39.2752 69.5914 39.7488 70.3884 40.3225 71.1112L40.3466 71.1394C40.5013 71.3439 40.5687 71.6013 40.534 71.8554C40.4993 72.1094 40.3654 72.3394 40.1616 72.4949C39.9784 72.6326 39.7524 72.7013 39.5236 72.6887C39.2948 72.6762 39.0777 72.5834 38.9106 72.4266C38.0875 71.6398 37.3926 70.7291 36.8511 69.7275C36.337 68.7264 35.957 67.662 35.7208 66.5618C35.4714 65.5079 35.3185 64.5023 35.0691 63.6093C34.8718 62.7783 34.5138 61.994 34.0152 61.3004C33.1062 60.0937 31.3604 59.4099 29.494 59.0358C27.5397 58.6952 25.5663 58.4749 23.585 58.3761C23.3291 58.3565 23.0914 58.2363 22.924 58.0418C22.7566 57.8472 22.6732 57.5943 22.692 57.3383C22.7052 57.1082 22.7998 56.8903 22.959 56.7237C23.1183 56.5571 23.3316 56.4528 23.5609 56.4292Z"
        fill="#101010" />
    <path
        d="M23.8064 67.9295C23.692 68.4514 23.6167 68.9812 23.5811 69.5143C23.5584 70.0285 23.5907 70.5437 23.6777 71.0509C23.7649 71.5368 23.9164 72.0089 24.1282 72.4548C24.2301 72.6768 24.3443 72.893 24.4701 73.1024C24.6149 73.2995 24.7396 73.5046 24.9045 73.6937C25.5813 74.4665 26.4007 75.1016 27.318 75.5641C27.7605 75.7974 28.3397 76.075 28.8908 76.3405C29.4419 76.606 29.9929 76.8875 30.536 77.1933C31.6689 77.8007 32.7458 78.5074 33.7539 79.3051C34.0114 79.5062 34.2568 79.7555 34.5061 79.9808C34.7556 80.2357 34.9906 80.5042 35.2101 80.7853C35.6843 81.3645 36.0483 82.0258 36.2841 82.7362C36.5167 83.4535 36.6136 84.2078 36.5697 84.9606C36.5388 85.7144 36.3612 86.455 36.0467 87.1408C35.6986 87.8648 35.1588 88.4797 34.486 88.9188C33.8729 89.3124 33.1903 89.5854 32.4748 89.7233C32.2241 89.7771 31.9624 89.7294 31.7468 89.5907C31.5312 89.452 31.3793 89.2335 31.3244 88.9831C31.2761 88.7544 31.3117 88.516 31.4247 88.3115C31.5377 88.1069 31.7206 87.9498 31.9398 87.8689H31.964C32.4214 87.7157 32.8508 87.4888 33.235 87.1971C33.5521 86.9445 33.7906 86.6069 33.9229 86.2237C34.0737 85.7993 34.1433 85.3504 34.128 84.9003C34.1253 84.4507 34.0422 84.0053 33.8827 83.585C33.7165 83.1627 33.4768 82.7732 33.1747 82.4345C33.014 82.2461 32.8435 82.0661 32.6639 81.8955C32.4627 81.7306 32.2857 81.5496 32.0645 81.3887C31.1763 80.7115 30.2347 80.1074 29.2488 79.5826C28.746 79.301 28.2271 79.0315 27.7082 78.7781C27.1893 78.5247 26.6744 78.2753 26.059 77.9374C24.8389 77.2765 23.7703 76.3682 22.9215 75.2705C22.0673 74.1293 21.5427 72.7755 21.405 71.3567C21.3009 70.0001 21.4987 68.6373 21.9842 67.3663C22.0293 67.2477 22.0973 67.1391 22.1844 67.0467C22.2715 66.9544 22.3759 66.8801 22.4917 66.8282C22.6076 66.7762 22.7325 66.7477 22.8594 66.7441C22.9863 66.7405 23.1126 66.7619 23.2312 66.8072C23.4476 66.8896 23.6273 67.047 23.7373 67.2509C23.8473 67.4547 23.8804 67.6912 23.8305 67.9174L23.8064 67.9295Z"
        fill="#101010" />
    <path
        d="M60.7324 74.5304C61.5924 74.9873 62.5661 75.1863 63.5364 75.1035C64.5068 75.0208 65.4327 74.6598 66.2029 74.0638C66.971 73.4477 67.5794 72.6557 67.9768 71.7549L68.1377 71.413C68.182 71.2964 68.2141 71.1716 68.2584 71.051C68.3464 70.8095 68.4176 70.5622 68.4716 70.3109L68.5561 69.9327L68.6043 69.7437L68.6486 69.5064C68.7089 69.1926 68.7692 68.8828 68.8457 68.5691C68.9926 67.9349 69.1739 67.3092 69.3887 66.6947C69.6189 66.0583 69.9043 65.4431 70.2415 64.8564C70.5907 64.2275 71.0297 63.653 71.5447 63.1508C72.0998 62.6109 72.7578 62.1883 73.4796 61.9079C74.2091 61.6493 74.9841 61.5439 75.7563 61.5982C76.5532 61.6532 77.3224 61.9138 77.9887 62.3544C78.6177 62.7746 79.1509 63.3229 79.5535 63.9634C79.9477 64.5762 80.2208 65.2589 80.358 65.9746C80.4236 66.2211 80.3886 66.4834 80.2607 66.7041C80.1329 66.9247 79.9226 67.0856 79.6762 67.1512C79.4297 67.2168 79.1673 67.1818 78.9467 67.0539C78.726 66.9261 78.5652 66.7158 78.4996 66.4694V66.4251C78.2236 65.5312 77.624 64.7724 76.8182 64.2972C76.4593 64.1042 76.0591 64.0007 75.6517 63.9955C75.2224 64.0019 74.7976 64.0835 74.3967 64.2369C73.5811 64.6533 72.9262 65.328 72.5343 66.1556C72.046 67.113 71.6888 68.1318 71.4723 69.1845C71.408 69.454 71.3557 69.7316 71.3074 70.0092L71.2672 70.2143L71.1908 70.4436L71.0822 70.9424C71.0095 71.2779 70.9114 71.6073 70.7885 71.9278C70.7322 72.0887 70.6799 72.2537 70.6156 72.4146L70.3943 72.8892C69.7992 74.1859 68.8791 75.3069 67.7234 76.1434C66.5535 76.9885 65.148 77.4453 63.7048 77.4496C62.2616 77.4539 60.8535 77.0055 59.6785 76.1675C59.483 76.0238 59.3484 75.8121 59.3015 75.574C59.2545 75.3359 59.2986 75.0889 59.4249 74.8817C59.5512 74.6746 59.7507 74.5223 59.9838 74.455C60.2169 74.3877 60.4668 74.4103 60.6841 74.5183L60.7324 74.5304Z"
        fill="#101010" />
    <path
        d="M83.9466 55.0093C85.5217 55.2302 86.9899 55.9327 88.1501 57.0206C88.7378 57.5608 89.2433 58.1842 89.6505 58.8709C90.0598 59.5403 90.3815 60.2596 90.6078 61.0109C90.8403 61.7443 90.9914 62.501 91.0583 63.2675C91.1368 64.0244 91.1368 64.7873 91.0583 65.5442C90.9122 67.0659 90.4167 68.5334 89.6103 69.8321C89.4817 70.0238 89.289 70.1633 89.0667 70.2256C88.8445 70.2878 88.6074 70.2688 88.3979 70.1718C88.1885 70.0749 88.0205 69.9063 87.9242 69.6966C87.8279 69.4869 87.8096 69.2497 87.8726 69.0276V68.9713C88.2455 67.8105 88.45 66.6022 88.4799 65.3833C88.4988 64.7772 88.4693 64.1705 88.3914 63.5692C88.3209 62.9753 88.1998 62.3886 88.0294 61.8154C87.7132 60.7023 87.1494 59.675 86.3802 58.8106C85.9937 58.3904 85.5574 58.0189 85.081 57.7044C84.5811 57.3835 84.0501 57.114 83.4961 56.8999H83.4438C83.2255 56.8108 83.0472 56.6452 82.9422 56.434C82.8372 56.2229 82.8128 55.9808 82.8735 55.753C82.9341 55.5252 83.0757 55.3272 83.2718 55.1963C83.4678 55.0653 83.7049 55.0103 83.9386 55.0415L83.9466 55.0093Z"
        fill="#101010" />
    <path
        d="M76.8503 82.8529C75.6782 82.831 74.5099 82.9912 73.387 83.3276C72.2701 83.652 71.2151 84.1604 70.2655 84.832C69.3578 85.4838 68.5995 86.3217 68.0411 87.2897C67.4837 88.3094 67.0849 89.408 66.8585 90.5479V90.6122C66.8078 90.8414 66.6757 91.0443 66.4867 91.1834C66.2977 91.3225 66.0647 91.3884 65.8308 91.3687C65.597 91.3491 65.3782 91.2453 65.2151 91.0766C65.052 90.9079 64.9556 90.6857 64.9438 90.4513C64.8439 88.9535 65.1205 87.4545 65.7483 86.091C66.4145 84.7013 67.4357 83.5121 68.7088 82.6437C69.938 81.7877 71.3307 81.1948 72.7997 80.902C74.2587 80.5812 75.7714 80.595 77.2244 80.9422C77.4527 81.0025 77.651 81.1444 77.7818 81.341C77.9125 81.5377 77.9667 81.7754 77.934 82.0093C77.9013 82.2432 77.784 82.457 77.6043 82.6102C77.4246 82.7635 77.195 82.8455 76.9589 82.8408L76.8503 82.8529Z"
        fill="#101010" />
    <path
        d="M67.1242 56.0591C67.0017 54.2873 67.237 52.5089 67.816 50.8299C68.423 49.079 69.4702 47.5136 70.857 46.2845C72.2585 45.0603 73.9655 44.2388 75.7966 43.9072C77.5406 43.594 79.3289 43.6227 81.062 43.9917C81.3038 44.0346 81.5201 44.1681 81.6669 44.3649C81.8138 44.5617 81.8801 44.8071 81.8524 45.051C81.8247 45.295 81.7051 45.5193 81.5179 45.6782C81.3307 45.8371 81.09 45.9187 80.8448 45.9064H80.8086C79.3059 45.8402 77.8014 45.9865 76.3396 46.3408L75.8167 46.4776C75.6438 46.5299 75.4829 46.6103 75.3139 46.6707L74.8151 46.8597C74.6542 46.9362 74.5054 47.0246 74.3485 47.1051L73.8819 47.3505L73.4515 47.6481C73.3107 47.7527 73.1539 47.8331 73.0251 47.9498L72.6229 48.2957C71.5765 49.2613 70.7529 50.4432 70.2094 51.7591C69.6353 53.1538 69.2432 54.6166 69.0429 56.1114C69.0082 56.3486 68.8868 56.5646 68.7022 56.7175C68.5175 56.8705 68.2828 56.9496 68.0433 56.9396C67.8037 56.9296 67.5764 56.8312 67.4051 56.6634C67.2339 56.4955 67.1309 56.2703 67.1161 56.031L67.1242 56.0591Z"
        fill="#101010" />
    <path
        d="M76.5892 32.1897C76.991 31.4524 77.4857 30.7697 78.0614 30.1584C78.6699 29.4946 79.4043 28.9586 80.222 28.5815C81.0396 28.2045 81.9242 27.9939 82.824 27.9621C83.2552 27.9319 83.688 27.9319 84.1193 27.9621C84.3324 27.9621 84.5215 28.0024 84.7468 28.0265C84.972 28.0506 85.2134 28.115 85.4467 28.1632C86.4314 28.4099 87.318 28.9499 87.9889 29.7119C88.5948 30.4263 89.0479 31.2573 89.3203 32.1535C89.5782 32.9599 89.7468 33.7922 89.8231 34.6354C89.9069 35.437 89.9432 36.2429 89.9317 37.0489C89.9317 37.4511 89.9317 37.8534 89.9076 38.2315L89.8794 39.3014C89.8773 39.9917 89.9243 40.6813 90.0202 41.365C90.1461 42.638 90.6038 43.8558 91.3476 44.8967C91.6856 45.3345 92.1282 45.6803 92.6348 45.9023C92.7635 45.9425 92.8842 46.0029 93.0371 46.0391C93.1899 46.0753 93.2985 46.1074 93.4393 46.1356C93.7572 46.1875 94.0786 46.2158 94.4007 46.2201C95.0097 46.2508 95.6186 46.1577 96.1907 45.9466C96.7029 45.7703 97.1482 45.4402 97.4658 45.0013L97.4899 44.9691C97.6287 44.7722 97.8362 44.6343 98.0715 44.5825C98.3068 44.5308 98.5529 44.5688 98.7616 44.6893C98.9702 44.8097 99.1263 45.0039 99.1992 45.2335C99.272 45.4632 99.2563 45.7118 99.1552 45.9305C98.6982 46.805 97.9619 47.5015 97.0635 47.9095C96.6507 48.1102 96.2161 48.2628 95.7683 48.3641C95.3339 48.4668 94.8908 48.5287 94.4449 48.5491C94.0101 48.568 93.5745 48.5546 93.1416 48.5089C92.9164 48.4847 92.671 48.4364 92.4417 48.3962C92.2063 48.3401 91.974 48.2717 91.7458 48.1911C90.8412 47.8472 90.0365 47.2831 89.4048 46.5499C88.8196 45.8586 88.3571 45.0723 88.0371 44.2249C87.7252 43.4338 87.5065 42.609 87.3855 41.7672C87.2652 40.9534 87.202 40.1321 87.1964 39.3095C87.1964 38.9072 87.1964 38.505 87.1964 38.1027C87.1964 37.7005 87.2286 37.3747 87.2286 37.0167C87.2438 36.3105 87.2183 35.6041 87.1522 34.9009C87.0962 34.2363 86.9749 33.5788 86.7902 32.9379C86.6409 32.3886 86.3838 31.8745 86.0339 31.4255C85.7119 31.0381 85.2799 30.7576 84.795 30.621C84.6542 30.5928 84.5456 30.5486 84.3928 30.5204C84.2399 30.4922 84.0589 30.4641 83.894 30.452C83.571 30.4122 83.246 30.3921 82.9206 30.3917C82.307 30.3891 81.698 30.4967 81.1225 30.7094C79.9922 31.1117 79.0389 32.0851 78.2384 33.2275C78.0863 33.4007 77.8772 33.5137 77.649 33.5461C77.4208 33.5785 77.1886 33.5283 76.9942 33.4044C76.7999 33.2805 76.6563 33.0911 76.5894 32.8706C76.5225 32.65 76.5367 32.4128 76.6294 32.2018L76.5892 32.1897Z"
        fill="#101010" />
</svg>