<svg width="94" height="108" viewBox="0 0 94 108" fill="none" xmlns="http://www.w3.org/2000/svg">
    <path
        d="M15.7038 15.9799C19.7207 18.0796 31.8554 21.6766 36.9495 22.3887C39.5057 22.7538 40.7144 22.637 41.5982 20.2816C42.1386 18.8209 42.2336 17.7765 41.3681 16.7796C39.0566 14.1066 38.3153 11.8425 39.0383 8.38067C39.7613 4.91884 44.5926 -0.576999 53.4334 1.39858C63.943 3.75394 63.5158 12.1639 62.9607 14.2855C61.8433 18.5617 57.9871 20.2086 55.818 20.7856C54.014 21.2639 53.7036 23.035 53.5101 23.9516C53.3165 24.8682 53.4334 26.3836 55.4163 27.2382C57.9725 28.3337 65.0532 30.5247 73.9853 31.182C71.0639 40.0192 70.3335 48.3122 70.0998 51.146C69.8953 53.7022 70.8594 53.7022 72.101 54.1951C72.6524 54.4142 74.219 54.7685 75.1757 54.4946C76.5816 54.0892 78.0971 49.7473 84.2612 50.2769C90.4253 50.8064 93.4927 56.5761 92.8354 63.7042C92.1781 70.8324 86.7334 75.4737 80.1895 74.433C78.304 74.1684 76.5416 73.3431 75.1311 72.0642C73.7206 70.7852 72.7272 69.1117 72.2799 67.261C71.8271 65.4351 70.9032 65.1722 69.2453 64.8801C67.4487 64.566 66.5467 64.4747 65.2869 67.1551C63.9321 70.04 60.9486 80.5971 59.3053 90.1609C52.2539 87.8896 42.9018 86.1988 40.7692 86.0893C38.6366 85.9797 38.0122 86.4946 37.4352 87.4367C36.8582 88.3789 36.6318 89.814 37.6251 90.8036C39.9512 93.1298 41.7077 95.7006 40.4734 100.682C39.3998 105.009 33.6045 108.288 25.7314 106.305C18.428 104.479 14.0459 98.695 15.0648 93.7433C15.8718 89.7702 17.694 88.189 20.3269 87.5353C22.0834 87.1081 22.664 86.1806 22.905 85.0668C23.146 83.953 22.6603 82.7005 21.1522 81.8752C18.2308 80.2794 12.567 77.756 1.48767 78.4389C1.71043 67.8489 3.82112 57.478 5.50456 52.2561C6.06693 50.5215 8.19953 51.0693 9.54702 51.4052C11.9608 52.0041 13.0892 52.4423 13.1987 54.6918C13.3265 57.4707 15.2912 59.5778 18.0154 60.4725C24.1283 62.4809 30.1902 59.0373 31.5267 51.5367C32.6441 45.274 29.6278 40.3223 25.4685 39.318C19.9435 37.9815 18.5996 39.8256 16.2589 42.2394C14.9698 43.5686 13.0235 42.8383 10.8507 42.1554C9.33522 41.6771 7.97312 41.4251 8.18127 39.3655C8.46611 36.6377 10.763 22.6406 15.7038 15.9799Z"
        fill="white" />
    <path
        d="M15.51 15.1254C15.9712 15.2158 16.4208 15.3579 16.8502 15.549L17.6755 15.9142C18.2086 16.1296 18.771 16.3378 19.3041 16.535C20.407 16.9318 21.5207 17.3067 22.6455 17.6597C24.8876 18.3755 27.1492 19.034 29.4303 19.6353C31.709 20.2196 34.006 20.7965 36.2773 21.1873C37.3728 21.3662 38.64 21.5524 39.3521 21.3735C39.4985 21.3328 39.6368 21.2674 39.7611 21.18C39.8925 21.0766 40.0071 20.9534 40.1007 20.8148C40.352 20.4006 40.5472 19.9548 40.6813 19.4892C40.8279 19.0952 40.8876 18.6742 40.8566 18.2549C40.8323 18.1026 40.779 17.9563 40.6996 17.824C40.6559 17.746 40.6045 17.6726 40.5462 17.6049L40.4184 17.4516L40.2687 17.269C39.8529 16.7782 39.471 16.2597 39.1257 15.717C38.761 15.1559 38.4551 14.5587 38.2127 13.935C37.9701 13.2942 37.8022 12.6277 37.7124 11.9484C37.6317 11.2819 37.6219 10.6086 37.6832 9.93998C37.7346 9.29021 37.8372 8.64551 37.99 8.01187C38.0712 7.67295 38.1786 7.34085 38.3113 7.0186C38.3771 6.85793 38.4355 6.69725 38.5085 6.54388L38.7386 6.09472C39.3725 4.93261 40.2113 3.89466 41.2145 3.03093C42.1959 2.16915 43.314 1.47682 44.5229 0.982313C44.8221 0.854762 45.1281 0.743824 45.4395 0.650006C45.7421 0.539568 46.052 0.45049 46.367 0.38343L47.3128 0.171631C47.6305 0.120506 47.9519 0.0949446 48.2696 0.0547757L48.748 0C48.905 0 49.0657 0 49.2263 0H50.1831C50.5008 0 50.8148 0.0438207 51.1289 0.0657311C51.4429 0.0876414 51.7643 0.109552 52.0747 0.157024C52.6918 0.273879 53.3162 0.36152 53.9261 0.522196C54.5359 0.682872 55.1348 0.839896 55.7337 1.03709C56.9501 1.43664 58.11 1.99141 59.1846 2.68767C61.4022 4.10733 63.0472 6.26452 63.8295 8.77873C64.208 10.0378 64.3782 11.3502 64.3335 12.6642C64.3201 13.3456 64.2282 14.0232 64.0596 14.6836C63.8831 15.3403 63.6383 15.9767 63.3293 16.5825C62.7138 17.7932 61.8414 18.8551 60.7731 19.6937C60.2548 20.1102 59.6985 20.477 59.1115 20.7892C58.5375 21.1045 57.9392 21.3731 57.3222 21.5926C57.0191 21.7095 56.7087 21.8081 56.3983 21.8957L56.1609 21.9614L56.0222 22.0089C55.9423 22.0355 55.8642 22.0672 55.7885 22.1039C55.654 22.1812 55.5311 22.2771 55.4233 22.3887C55.3057 22.5258 55.2051 22.6766 55.1238 22.8379C54.9228 23.2787 54.7804 23.744 54.7002 24.2219C54.6243 24.5518 54.6563 24.8974 54.7915 25.2078C54.9544 25.5203 55.2094 25.7753 55.5219 25.9382C55.7323 26.0592 55.9521 26.163 56.1792 26.2486C56.4312 26.3581 56.705 26.4567 56.968 26.559C58.0416 26.957 59.159 27.3112 60.2545 27.6326C62.4978 28.2913 64.7734 28.8349 67.0723 29.2612C69.3729 29.7031 71.6954 30.039 74.0105 30.2874C74.2439 30.3069 74.4599 30.4182 74.6113 30.5969C74.7626 30.7756 74.8368 31.0071 74.8176 31.2405C74.814 31.2977 74.803 31.3541 74.7847 31.4084V31.4377C73.4321 36.1562 72.4552 40.9745 71.8633 45.8473C71.71 47.0646 71.5773 48.2818 71.4653 49.4991C71.4105 50.1052 71.3557 50.7333 71.3156 51.3249C71.2973 51.5753 71.2973 51.8268 71.3156 52.0772C71.3236 52.1752 71.337 52.2727 71.3557 52.3693C71.3688 52.4023 71.3786 52.4366 71.385 52.4716C71.385 52.5008 71.4069 52.5117 71.4142 52.5373C71.4215 52.5629 71.4142 52.5738 71.542 52.6541C71.7664 52.7579 71.9969 52.8481 72.2322 52.9244L72.6448 53.0777C72.7434 53.1143 72.8712 53.1471 73.01 53.18C73.2639 53.2431 73.5211 53.2918 73.7805 53.3261C74.0227 53.356 74.2668 53.3682 74.5108 53.3626C74.6062 53.358 74.7013 53.3482 74.7957 53.3334H74.8431C74.8614 53.3334 74.8833 53.3334 74.8687 53.3334C74.8541 53.3334 74.8687 53.3334 74.8504 53.3334C75.0156 53.211 75.1696 53.0741 75.3106 52.9244L75.9496 52.2671C76.8945 51.2311 78.0416 50.3997 79.3201 49.8241C80.6304 49.2938 82.0376 49.045 83.4502 49.0937C84.8445 49.1027 86.2232 49.3869 87.5073 49.93C88.8035 50.4874 89.9606 51.3241 90.8961 52.3803C91.8049 53.4137 92.5155 54.6058 92.9922 55.8969C93.4569 57.1494 93.766 58.4544 93.9124 59.7823C94.0292 61.0895 94.0292 62.4044 93.9124 63.7116C93.7962 65.0415 93.5141 66.3517 93.0725 67.6116C92.6127 68.8847 91.968 70.0831 91.159 71.1684C90.3169 72.2486 89.3013 73.1815 88.1536 73.9291C87.8579 74.1043 87.5767 74.2942 87.2663 74.4513L86.3314 74.8931L85.3564 75.2327C85.0277 75.3347 84.6937 75.4188 84.3559 75.4847C83.0119 75.7653 81.6298 75.8135 80.2696 75.6271C78.8942 75.4549 77.5616 75.0342 76.3367 74.3855C75.0932 73.7229 74.0043 72.8044 73.1414 71.6906C72.707 71.1459 72.329 70.5586 72.0131 69.9377C71.6927 69.3184 71.4311 68.6704 71.2316 68.0023L71.1001 67.5203C71.0708 67.4065 71.0354 67.2944 70.9942 67.1843C70.9374 67.0168 70.8549 66.8591 70.7496 66.7169C70.6639 66.611 70.5553 66.5261 70.4319 66.4686C70.2338 66.3799 70.027 66.3126 69.8147 66.2678C69.2712 66.1455 68.7214 66.0528 68.1678 65.9902C68.0009 65.9686 67.8314 65.9772 67.6675 66.0158C67.5528 66.0541 67.4489 66.1192 67.3644 66.2057C67.0383 66.5515 66.7696 66.9472 66.5683 67.3779C66.312 67.8921 66.084 68.4199 65.8855 68.9591C65.0492 71.2158 64.3481 73.5931 63.6944 75.9594C63.0408 78.3257 62.3908 80.7067 61.8174 83.1204C61.2441 85.5342 60.6964 87.9298 60.2034 90.3472C60.1816 90.4626 60.137 90.5726 60.0723 90.6707C60.0077 90.7688 59.9242 90.8531 59.8267 90.9186C59.7292 90.9842 59.6196 91.0297 59.5044 91.0526C59.3891 91.0755 59.2705 91.0753 59.1553 91.052H59.086C56.9205 90.4385 54.7222 89.9053 52.5129 89.4087C50.3036 88.9121 48.0833 88.4812 45.8594 88.0831C44.7639 87.8896 43.6355 87.718 42.5291 87.55C41.985 87.477 41.4336 87.3966 40.9223 87.3637C40.4512 87.3242 39.9772 87.3377 39.5091 87.4039C39.3505 87.4293 39.1966 87.4786 39.0526 87.55C38.9434 87.6102 38.8467 87.6907 38.7678 87.7873C38.7167 87.8531 38.6582 87.9261 38.5998 88.0174C38.5444 88.0993 38.4944 88.1846 38.4501 88.273C38.366 88.435 38.3022 88.6067 38.2602 88.7843C38.177 89.0789 38.1963 89.3931 38.315 89.6753C38.3742 89.8031 38.4559 89.9194 38.556 90.0185C38.7678 90.234 38.9796 90.4421 39.1841 90.6722C40.0629 91.5936 40.7879 92.6502 41.3313 93.8017C41.8544 95.0041 42.1193 96.3029 42.1091 97.6141C42.1091 97.9318 42.1091 98.2532 42.0653 98.5636C42.0215 98.874 42.0105 99.1917 41.9557 99.4948C41.901 99.7978 41.8572 100.108 41.7841 100.404C41.7238 100.715 41.6445 101.023 41.5468 101.324C41.149 102.596 40.4441 103.75 39.4945 104.684C38.5882 105.587 37.5189 106.311 36.3431 106.816C35.2048 107.312 34.0067 107.657 32.779 107.843C30.3719 108.154 27.9274 108.002 25.5778 107.393C24.4049 107.101 23.2618 106.7 22.1634 106.196C21.0545 105.695 20.0038 105.074 19.0303 104.344C18.0448 103.599 17.1501 102.741 16.3645 101.788C15.565 100.812 14.9242 99.7168 14.4656 98.5416C13.9838 97.3294 13.7635 96.0289 13.8192 94.7256C13.8375 94.3969 13.8923 94.0683 13.9325 93.7396C13.9726 93.411 14.0566 93.1298 14.1187 92.8231C14.2659 92.2111 14.4575 91.6106 14.692 91.0264C15.177 89.7576 15.9928 88.6417 17.0547 87.7946C17.5991 87.3805 18.1989 87.0449 18.8367 86.7977C19.4319 86.5531 20.1769 86.3924 20.5055 86.2755C20.8446 86.1736 21.1491 85.9803 21.3856 85.7168C21.4868 85.5932 21.5669 85.4538 21.623 85.3042C21.6558 85.2202 21.6851 85.1289 21.7143 85.0339L21.7508 84.8806L21.7727 84.7637C21.8156 84.4638 21.7578 84.1582 21.6084 83.8946C21.4156 83.5713 21.1475 83.2994 20.8269 83.1022C20.6662 83.0036 20.4106 82.8648 20.1696 82.737L19.4392 82.3718C18.9499 82.1345 18.4569 81.9117 17.953 81.7036C16.9425 81.2919 15.907 80.9443 14.8527 80.6628C12.7164 80.0843 10.5303 79.7089 8.32341 79.5418C6.09097 79.3614 3.85022 79.3053 1.61155 79.3738H1.57503C1.33835 79.3797 1.10897 79.2915 0.937168 79.1286C0.765365 78.9657 0.665138 78.7413 0.658447 78.5047V78.4499C0.678564 73.252 1.10959 68.0637 1.9475 62.9337C2.36015 60.3775 2.84948 57.8213 3.48853 55.2651C3.64921 54.6334 3.81353 53.998 3.99612 53.3662C4.08376 53.0485 4.17871 52.7345 4.2773 52.4168L4.41972 51.9457C4.44528 51.8617 4.50736 51.7157 4.55118 51.6061L4.62787 51.4308L4.73377 51.2519C5.02563 50.7627 5.46558 50.379 5.98996 50.1564C6.43145 49.9749 6.90392 49.8806 7.38126 49.8788C8.12877 49.8857 8.87237 49.9876 9.59421 50.1819C10.2296 50.339 10.8723 50.4887 11.5734 50.7297C11.9545 50.8637 12.3215 51.035 12.669 51.2409C13.0845 51.4936 13.4457 51.8263 13.7316 52.2196C14.0056 52.6087 14.2004 53.048 14.3049 53.5123C14.3948 53.9009 14.4486 54.297 14.4656 54.6955C14.4872 55.2056 14.5959 55.7082 14.787 56.1817C15.1878 57.1529 15.8742 57.9793 16.7552 58.5517C17.2099 58.8616 17.7003 59.1154 18.2159 59.3076C18.4642 59.4171 18.7637 59.4756 19.0339 59.5632L19.4538 59.6837L19.8774 59.7604C21.0047 59.9831 22.1646 59.9831 23.2918 59.7604C24.4161 59.5364 25.4832 59.0867 26.4286 58.4385C27.3837 57.7743 28.202 56.9325 28.8388 55.959C29.4758 54.9561 29.9676 53.868 30.2995 52.7272C30.6093 51.5646 30.7809 50.3695 30.8107 49.1668C30.8207 47.9805 30.6444 46.8 30.2885 45.6684C29.9431 44.5697 29.393 43.5463 28.6671 42.6521C27.9687 41.7975 27.0708 41.1279 26.0525 40.7021L25.8699 40.6217L25.6764 40.5633L25.3112 40.4464C25.0337 40.3734 24.7233 40.315 24.4311 40.2493C24.139 40.1835 23.8432 40.1507 23.5511 40.0995C23.2589 40.0484 22.9705 40.0411 22.682 40.0192C22.1372 39.9873 21.5906 40.0191 21.0533 40.1141C20.5508 40.2218 20.0704 40.4144 19.6328 40.6838C19.1581 40.989 18.7174 41.344 18.3182 41.7428C18.0991 41.9583 17.88 42.1737 17.6572 42.4038L17.3212 42.7507C17.1934 42.8748 17.1241 42.9625 16.9305 43.1341C16.2479 43.7477 15.3537 44.0724 14.4364 44.0397C13.6928 44.0188 12.9556 43.8959 12.2454 43.6746C11.588 43.4883 10.9746 43.2765 10.3757 43.0903C10.0726 42.9953 9.75123 42.8967 9.40432 42.7689C9.01361 42.6264 8.64484 42.4297 8.3088 42.1847C7.8944 41.8735 7.57763 41.4503 7.39587 40.965C7.24828 40.5356 7.18383 40.082 7.20598 39.6285L7.22424 39.329C7.22424 39.2268 7.24615 39.1537 7.25346 39.0698L7.31554 38.5695L7.4616 37.5945C7.87425 35.0127 8.4074 32.482 9.0501 29.9514C9.68166 27.4172 10.462 24.9224 11.3872 22.48C11.5041 22.1769 11.6136 21.8665 11.7524 21.5634L12.1431 20.6578C12.3914 20.0516 12.6945 19.46 12.9867 18.8648C13.2788 18.2696 13.6221 17.6999 13.9471 17.1193C14.1503 16.7553 14.3862 16.4107 14.6518 16.0895C14.9187 15.7515 15.2052 15.4296 15.51 15.1254ZM15.9007 16.8344C15.8592 17.0431 15.8055 17.2491 15.7401 17.4516C15.6743 17.6305 15.5794 17.7254 15.4114 18.0468C15.1156 18.5946 14.787 19.1168 14.5313 19.6901C14.2757 20.2634 13.9836 20.8111 13.7499 21.3991L13.3847 22.2682C13.2642 22.5603 13.1619 22.8598 13.0487 23.1556C12.1776 25.5369 11.446 27.967 10.8577 30.4334C10.2588 32.9056 9.76219 35.4107 9.39702 37.9158L9.2692 38.8506L9.21808 39.3108C9.21808 39.3838 9.19617 39.4714 9.19617 39.5299V39.7125C9.18597 39.9016 9.21073 40.091 9.2692 40.2712C9.31443 40.3937 9.39759 40.4986 9.50657 40.5706C9.96363 40.8287 10.4556 41.0193 10.9673 41.1366C11.5954 41.3265 12.2015 41.5274 12.7931 41.688C13.3166 41.8495 13.8596 41.9391 14.4072 41.9546C14.6121 41.9593 14.8162 41.9272 15.0097 41.8597C15.1771 41.802 15.3285 41.7057 15.4516 41.5785C15.5529 41.4851 15.6492 41.3864 15.7401 41.2827L16.0724 40.9175C16.2951 40.6802 16.5288 40.4391 16.7625 40.1872C17.266 39.6682 17.8243 39.2053 18.4277 38.8068C19.081 38.39 19.8012 38.0886 20.5567 37.9158C21.2838 37.7724 22.0255 37.716 22.766 37.7478C23.1311 37.7697 23.4744 37.8063 23.8213 37.8428C24.1682 37.8793 24.5078 37.945 24.8438 38.0144C25.1797 38.0838 25.5011 38.1495 25.8444 38.2372L26.3848 38.4015L26.655 38.4855L26.9107 38.595C28.2703 39.1837 29.4624 40.101 30.3798 41.2644C31.2483 42.3994 31.8894 43.6914 32.2677 45.0695C32.6389 46.4258 32.8002 47.831 32.7461 49.2361C32.7007 50.6069 32.4936 51.9674 32.129 53.2895C31.7591 54.6271 31.1995 55.9048 30.4674 57.0837C29.7055 58.2771 28.7271 59.3175 27.5826 60.1511C26.4251 60.9968 25.1084 61.5993 23.7118 61.9222C22.3146 62.2375 20.869 62.2747 19.4575 62.0318L18.9317 61.9514L18.4168 61.82C18.0697 61.7412 17.7271 61.6437 17.3906 61.5278C16.6925 61.2896 16.0256 60.9684 15.4041 60.5711C14.0989 59.7466 13.079 58.5405 12.4827 57.1166C12.1918 56.3949 12.0239 55.6296 11.9861 54.8525C11.9738 54.6067 11.9408 54.3624 11.8875 54.1221C11.8567 53.9562 11.792 53.7983 11.6976 53.6584C11.6042 53.5304 11.4863 53.4224 11.3507 53.3407C11.1466 53.2204 10.9314 53.1201 10.708 53.0412C10.1967 52.8586 9.5869 52.7053 8.97706 52.5482C8.45743 52.3994 7.9215 52.3147 7.38126 52.2963C7.21376 52.2934 7.047 52.3193 6.88829 52.373C6.81424 52.3974 6.75266 52.4499 6.71665 52.519L6.69474 52.5482L6.67649 52.5921C6.67649 52.6322 6.65457 52.6322 6.62901 52.7053L6.49024 53.1508C6.3953 53.4502 6.30035 53.7497 6.21636 54.0528C6.03378 54.6553 5.8731 55.2651 5.70878 55.8786C5.08068 58.3326 4.54023 60.823 4.08011 63.3281C3.17323 68.3448 2.59865 73.4159 2.36015 78.5083L1.43262 77.6173H1.45453C6.05569 77.2193 10.7774 77.2923 15.3858 78.4243C16.5412 78.717 17.6767 79.0829 18.7856 79.5198C19.3406 79.739 19.8884 79.9751 20.4289 80.2283L21.2286 80.6263C21.4915 80.7651 21.7435 80.8892 22.0685 81.0864C22.7268 81.4868 23.2772 82.0422 23.6716 82.7041C24.1 83.4353 24.2674 84.2902 24.1463 85.1289C24.1281 85.2311 24.1098 85.3443 24.0915 85.432C24.0733 85.5196 24.0514 85.6073 24.0258 85.6949C23.9747 85.8702 23.9163 86.0601 23.8432 86.2317C23.6912 86.6149 23.4805 86.9722 23.2188 87.2907C22.9546 87.6085 22.6415 87.8822 22.2912 88.1014C21.9728 88.3021 21.6321 88.4651 21.2761 88.5871C20.9474 88.7076 20.5713 88.7952 20.3704 88.8536C20.2469 88.8824 20.125 88.9177 20.0053 88.9595C19.8912 88.9937 19.7791 89.0339 19.6693 89.08C19.2406 89.2421 18.8372 89.4647 18.4715 89.741C17.7405 90.3259 17.1763 91.0929 16.8356 91.9649C16.6347 92.4383 16.4711 92.9267 16.3462 93.4256C16.2915 93.6776 16.2075 93.9514 16.1783 94.1815C16.149 94.4116 16.1016 94.6526 16.0833 94.8936C16.0288 95.8761 16.1819 96.859 16.5325 97.7784C16.8854 98.7397 17.3896 99.6384 18.026 100.441C18.6788 101.262 19.4321 101.998 20.2682 102.632C21.9871 103.91 23.9417 104.836 26.0196 105.356C28.0991 105.887 30.2617 106.011 32.3882 105.721C34.4551 105.389 36.4636 104.545 37.822 103.11C38.4937 102.427 38.9877 101.589 39.2608 100.671C39.3346 100.431 39.3931 100.187 39.4361 99.9403C39.4981 99.681 39.531 99.4254 39.5675 99.1661C39.604 98.9068 39.6296 98.6549 39.6479 98.3992C39.6678 98.1478 39.6751 97.8955 39.6698 97.6433C39.6667 96.6654 39.4551 95.6993 39.049 94.8096C38.6103 93.8978 38.027 93.063 37.3217 92.3374C37.1464 92.1402 36.9565 91.9466 36.763 91.7531C36.4593 91.4499 36.212 91.095 36.0327 90.7051C35.6891 89.9342 35.6108 89.0712 35.8099 88.2511C35.8971 87.871 36.0308 87.503 36.2079 87.1556C36.2956 86.9803 36.4015 86.8123 36.4891 86.6736C36.5768 86.5348 36.7009 86.3705 36.8287 86.2135C37.1148 85.8714 37.4661 85.5896 37.8622 85.3845C38.2307 85.2038 38.6248 85.0806 39.0307 85.0193C39.6919 84.9196 40.3628 84.9024 41.0282 84.9682C41.6709 85.0193 42.2333 85.107 42.8176 85.191C43.9678 85.3736 45.0999 85.5854 46.2283 85.8081C50.7487 86.6994 55.2031 87.8975 59.5607 89.3941L58.4286 90.0806C59.1638 85.1328 60.1621 80.2277 61.4194 75.3861C62.0658 72.965 62.734 70.5658 63.5922 68.152C63.7127 67.8453 63.8149 67.5459 63.9574 67.2355C64.0998 66.9251 64.2239 66.6074 64.3773 66.3043C64.5392 65.9598 64.7221 65.6257 64.9251 65.3037C65.1433 64.9547 65.406 64.6355 65.7065 64.3543C66.0736 64.0139 66.515 63.7639 66.9956 63.6239C67.4358 63.5068 67.8934 63.4697 68.3467 63.5144C68.7302 63.5472 69.0771 63.602 69.3838 63.6568C69.6906 63.7116 70.0192 63.77 70.3734 63.8503C70.7669 63.94 71.1491 64.0735 71.5128 64.2484C71.9514 64.4612 72.3378 64.7679 72.6448 65.1467C72.9194 65.496 73.1341 65.8884 73.2802 66.3079C73.3496 66.4978 73.4044 66.6731 73.4518 66.863L73.565 67.2793C73.7188 67.8018 73.923 68.3081 74.1749 68.7911C74.4185 69.279 74.7084 69.7424 75.0403 70.1751C75.7108 71.0384 76.546 71.76 77.4976 72.2978C78.4492 72.8357 79.4982 73.1791 80.5836 73.3083C81.6865 73.479 82.8105 73.4592 83.9067 73.2498C84.179 73.2017 84.4485 73.1383 84.7137 73.06L85.5025 72.8043L86.2584 72.4574C86.514 72.3479 86.7368 72.1835 86.9888 72.0484C87.9344 71.4516 88.7706 70.6969 89.461 69.8172C90.1418 68.9116 90.6868 67.9114 91.0787 66.8484C91.4622 65.7649 91.7076 64.6373 91.809 63.4924C91.901 62.3227 91.8888 61.1471 91.7725 59.9795C91.6396 58.838 91.3674 57.7171 90.9618 56.6418C90.5714 55.5985 89.9837 54.6401 89.2309 53.819C88.079 52.6699 86.6151 51.8843 85.0207 51.5597C83.4263 51.2351 81.7718 51.3858 80.2623 51.9932C79.7824 52.2124 79.3291 52.4856 78.9111 52.8075C78.4696 53.1493 78.0556 53.5254 77.6732 53.9322L77.0159 54.6151C76.7302 54.9181 76.409 55.1854 76.0592 55.4112C75.6092 55.65 75.1078 55.7753 74.5985 55.7764C74.2191 55.7913 73.8392 55.7742 73.4628 55.7252C73.1063 55.68 72.7527 55.6141 72.4038 55.528C72.2249 55.4806 72.0386 55.4368 71.8597 55.371L71.3959 55.1994C71.0407 55.0845 70.6951 54.9417 70.3625 54.7721C70.125 54.6431 69.9063 54.4822 69.7125 54.2938C69.5078 54.0868 69.3388 53.8474 69.2122 53.5853C69.0162 53.1643 68.9045 52.7091 68.8835 52.2452C68.8567 51.8805 68.8567 51.5143 68.8835 51.1496C68.9347 50.4996 68.9931 49.8898 69.0588 49.258C69.183 48.0092 69.3473 46.7603 69.5299 45.515C70.251 40.5375 71.467 35.6443 73.1597 30.9082L73.9266 32.0584C69.1073 31.8285 64.3254 31.0941 59.6593 29.8674C58.4907 29.5497 57.3331 29.1992 56.1719 28.7719C55.8834 28.6623 55.5949 28.5674 55.2991 28.4432C54.9678 28.3217 54.6456 28.1765 54.3351 28.0087C53.5943 27.6057 52.9952 26.9849 52.6188 26.2303C52.2503 25.4537 52.144 24.5784 52.3157 23.7362C52.4241 23.0415 52.6294 22.3654 52.9255 21.7277C53.1073 21.3558 53.3409 21.0116 53.6193 20.7053C53.9203 20.3882 54.2705 20.1219 54.6564 19.9165C54.8453 19.8189 55.042 19.737 55.2444 19.6718L55.5292 19.5805L55.7227 19.5257C55.982 19.4527 56.2376 19.3724 56.4896 19.2774C58.509 18.5471 60.2874 17.258 61.2368 15.465C61.4753 15.015 61.6662 14.5414 61.8065 14.0518C61.937 13.5627 62.0117 13.0605 62.0293 12.5546C62.0861 11.4898 61.969 10.4229 61.6823 9.39587C61.5399 8.88677 61.3542 8.39076 61.1273 7.91328C60.424 6.47442 59.3373 5.25755 57.9868 4.39667C56.1086 3.20486 53.9874 2.44871 51.7789 2.18373C51.5013 2.13991 51.2275 2.1326 50.9499 2.10704C50.6724 2.08148 50.3985 2.04861 50.121 2.05227H49.2994C49.1606 2.05227 49.0218 2.05227 48.8867 2.05227L48.4923 2.12895C47.4117 2.22954 46.3533 2.49813 45.3555 2.92503C44.3656 3.3397 43.4522 3.91737 42.6532 4.63403C41.8612 5.33261 41.2008 6.16743 40.7032 7.09894L40.5243 7.4422C40.4731 7.55906 40.433 7.67591 40.3855 7.80738C40.2932 8.03336 40.2199 8.26666 40.1664 8.50486C40.047 9.02755 39.9677 9.55859 39.929 10.0934C39.8411 11.1083 39.9808 12.1301 40.338 13.0841C40.7451 14.0691 41.3128 14.9798 42.0178 15.7791L42.3063 16.1443C42.4418 16.3044 42.5639 16.4754 42.6715 16.6555C42.8953 17.0351 43.044 17.4541 43.1097 17.8898C43.2037 18.6553 43.1161 19.4321 42.8541 20.1575C42.6496 20.832 42.3522 21.4748 41.9704 22.0673C41.7319 22.4177 41.4384 22.7272 41.1012 22.9839C40.7405 23.2403 40.3357 23.4285 39.9071 23.539C39.1992 23.6821 38.4726 23.708 37.7563 23.6157C37.1172 23.5572 36.5256 23.4513 35.9122 23.3491C33.5057 22.9036 31.1905 22.312 28.8862 21.662C26.582 21.012 24.2997 20.2999 22.032 19.5184C20.8999 19.1289 19.774 18.7126 18.6541 18.2696C18.0918 18.0468 17.533 17.8167 16.978 17.5721L16.171 17.2069C16.0578 17.1266 15.992 17.0097 15.9007 16.8344Z"
        fill="#5F5F5F" />
    <path
        d="M41.3751 79.4176C43.8363 79.7536 46.283 80.0786 48.7077 80.2173C49.3103 80.2502 49.9165 80.2648 50.5336 80.2757H50.9828H51.3662C51.5911 80.259 51.8137 80.2199 52.0308 80.1589C52.3904 80.0649 52.7058 79.8479 52.9218 79.5454C53.2198 79.1149 53.465 78.6503 53.6522 78.1614C54.6126 75.9046 55.5255 73.5748 56.3654 71.2523C57.2236 68.946 57.955 66.5944 58.5564 64.2082C58.605 63.984 58.7394 63.7878 58.931 63.6617C59.1225 63.5355 59.3559 63.4895 59.581 63.5335C59.8061 63.5774 60.005 63.7079 60.135 63.8969C60.265 64.0858 60.3158 64.3182 60.2764 64.5441C59.8664 67.0647 59.2646 69.5502 58.4761 71.979C57.7019 74.4001 56.8511 76.7628 55.8797 79.1328C55.6115 79.8092 55.262 80.4505 54.839 81.0426C54.5736 81.3922 54.2573 81.6999 53.9005 81.9555C53.5342 82.2113 53.1283 82.405 52.6991 82.5289C52.3116 82.6365 51.9137 82.7026 51.5123 82.7261C51.326 82.7261 51.1471 82.7261 50.9572 82.7261H50.4679C49.8179 82.7261 49.1715 82.6676 48.5288 82.6092C45.981 82.3598 43.4623 81.8708 41.0063 81.1485C40.7877 81.0918 40.5994 80.953 40.4807 80.7609C40.362 80.5688 40.322 80.3383 40.3691 80.1174C40.4162 79.8966 40.5467 79.7024 40.7335 79.5754C40.9202 79.4484 41.1487 79.3984 41.3714 79.4359L41.3751 79.4176Z"
        fill="#5F5F5F" />
</svg>