<svg width="226" height="81" viewBox="0 0 226 81" fill="none" xmlns="http://www.w3.org/2000/svg">
    <path
        d="M217.649 17.9461C215.86 17.9416 214.121 17.3442 212.691 16.2432C211.261 15.1422 210.217 13.5967 209.715 11.8375H129.41C128.51 11.8339 127.619 12.0135 126.787 12.3661C125.955 12.7187 125.2 13.2371 124.566 13.8913L99.2155 39.8331C98.1523 40.928 96.8877 41.796 95.4949 42.3869C94.1022 42.9779 92.6089 43.28 91.1015 43.2758L17.4358 43.275C15.62 43.2768 13.8791 44.0166 12.5951 45.3322C11.3112 46.6478 10.5891 48.4316 10.5874 50.2921V64.2076C12.5002 64.7781 14.1479 66.0366 15.2279 67.7519C16.3078 69.4671 16.7476 71.5241 16.4664 73.5449C16.1852 75.5657 15.2018 77.4147 13.697 78.7523C12.1921 80.0899 10.2668 80.8264 8.27464 80.8264C6.28245 80.8264 4.35712 80.0899 2.85228 78.7523C1.34744 77.4147 0.364109 75.5657 0.082881 73.5449C-0.198347 71.5241 0.241412 69.4671 1.32139 67.7519C2.40137 66.0366 4.04906 64.7781 5.96186 64.2076V50.2921C5.96526 47.1751 7.1752 44.1868 9.32625 41.9828C11.4773 39.7788 14.3938 38.5391 17.4358 38.5356L91.1015 38.5364C92.0013 38.5389 92.8927 38.3587 93.7241 38.0062C94.5556 37.6537 95.3106 37.1359 95.9455 36.4826L121.264 10.5407C122.33 9.44073 123.6 8.56967 124.999 7.97854C126.397 7.38741 127.897 7.08808 129.41 7.09807H209.715C210.145 5.58594 210.977 4.22628 212.118 3.17155C213.26 2.11683 214.665 1.40872 216.178 1.12659C217.69 0.844467 219.249 0.999466 220.68 1.57425C222.111 2.14902 223.357 3.12087 224.279 4.38079C225.202 5.64071 225.763 7.13892 225.901 8.70747C226.039 10.276 225.748 11.8529 225.06 13.2614C224.372 14.6698 223.315 15.8542 222.007 16.6816C220.699 17.5091 219.193 17.9469 217.656 17.9461H217.649Z"
        fill="url(#paint0_linear_1_121)" />
    <defs>
        <linearGradient id="paint0_linear_1_121" x1="4.22081e-07" y1="40.9719" x2="195.186"
            y2="40.9719" gradientUnits="userSpaceOnUse">
            <stop stop-color="#E7E7E7" />
            <stop offset="1" stop-color="#FAFAFA" />
        </linearGradient>
    </defs>
</svg>