<svg width="110" height="109" viewBox="0 0 110 109" fill="none" xmlns="http://www.w3.org/2000/svg">
    <path
        d="M87.8013 84.4048C86.1166 81.1898 82.1005 75.9704 82.1472 69.0555C82.1939 61.8891 86.0986 50.6313 80.6457 38.7735C75.1928 26.9158 57.5554 17.1667 37.6226 31.697C18.4872 45.6382 23.7138 66.3362 31.3004 74.7203C39.6162 83.9091 49.9113 85.1628 56.2766 86.8044C62.6419 88.446 67.4122 92.9541 71.1121 97.1893C74.8121 101.424 90.0679 88.7154 87.8013 84.4048Z"
        fill="white" />
    <path
        d="M87.0363 84.8073C85.9874 82.8998 84.6978 80.9601 83.6956 78.8658C82.6293 76.7645 81.8812 74.5164 81.4757 72.1952C81.3571 71.6133 81.3284 71.017 81.2565 70.4278L81.2242 69.5334C81.2242 69.2352 81.2242 68.9371 81.2242 68.6461C81.2242 68.0606 81.2565 67.4715 81.3104 66.8967C81.3643 66.322 81.4074 65.7473 81.4721 65.1797C81.7199 62.9023 82.036 60.6715 82.2444 58.4444C82.4724 56.2334 82.5647 54.0104 82.521 51.7881C82.4513 49.5904 82.1832 47.4034 81.7199 45.254C81.2282 43.1235 80.5179 41.0494 79.6005 39.0647C78.6657 37.1166 77.456 35.3129 76.0084 33.7088C74.5688 32.086 72.9115 30.6704 71.0836 29.5023C69.2712 28.3163 67.3047 27.3844 65.2391 26.7328C61.0854 25.4384 56.6695 25.2282 52.4116 26.1221C48.1477 26.995 44.0958 28.8486 40.403 31.2409C38.5608 32.4437 36.8102 33.7812 35.1657 35.2426C33.5542 36.712 32.0911 38.3363 30.7976 40.092C28.2127 43.5952 26.5311 47.6814 25.9015 51.9893C25.3028 56.3124 25.7022 60.7152 27.069 64.86C27.741 66.9298 28.6499 68.915 29.7774 70.7763C30.3365 71.6983 30.962 72.5783 31.649 73.4093C31.825 73.6105 32.0082 73.8188 32.1734 74.02L32.741 74.6091L33.3085 75.2018C33.4989 75.3994 33.6677 75.597 33.8941 75.7766C37.1011 78.7831 40.8776 81.1172 45.001 82.6412C47.0839 83.4161 49.212 84.0639 51.3735 84.581L54.6675 85.3677C55.217 85.497 55.7774 85.6406 56.3342 85.7771C56.6108 85.8454 56.9018 85.9424 57.182 86.0214C57.4621 86.1004 57.7567 86.1831 58.0333 86.2873C59.151 86.6739 60.2387 87.1421 61.2878 87.6882C62.3243 88.2425 63.3271 88.8579 64.2908 89.531C65.2398 90.2033 66.1545 90.9226 67.0316 91.6863C67.9009 92.4574 68.7391 93.2572 69.5461 94.0858C69.9413 94.5025 70.34 94.9156 70.7244 95.3431L71.3027 95.9825L71.5865 96.3058L71.7266 96.4674L71.7984 96.55L71.8487 96.6003C72.1018 96.8602 72.4367 97.0251 72.797 97.0673C73.2546 97.1244 73.7185 97.1038 74.1692 97.0063C75.1912 96.7836 76.1776 96.421 77.1004 95.9286C78.0683 95.4284 78.9998 94.8606 79.8879 94.2295C81.6824 92.9678 83.321 91.4979 84.7696 89.8507C85.4796 89.0555 86.0944 88.1803 86.6016 87.2428C86.831 86.8135 87.0026 86.3557 87.1117 85.8813C87.2034 85.5246 87.1769 85.1477 87.0363 84.8073ZM88.5701 84.0026C88.7539 84.3611 88.8615 84.7537 88.8863 85.1557C88.9082 85.5168 88.8816 85.8793 88.8072 86.2334C88.664 86.8592 88.4381 87.4632 88.1355 88.0294C87.5635 89.0828 86.8781 90.0705 86.0915 90.975C84.5627 92.7443 82.8287 94.3252 80.926 95.6843C79.9742 96.3739 78.9742 96.9945 77.9338 97.5415C76.8605 98.1218 75.7121 98.551 74.5212 98.8167C73.8628 98.9589 73.1848 98.9868 72.5168 98.8993C71.7449 98.7995 71.0295 98.4412 70.4873 97.8827L70.3903 97.7786L70.3184 97.7031L70.1783 97.5451L69.8981 97.2362L69.3342 96.6183C68.975 96.2052 68.5691 95.8101 68.1847 95.4113C67.404 94.6211 66.5982 93.8643 65.7672 93.1411C64.9362 92.4179 64.0705 91.7437 63.1701 91.1187C62.2728 90.5031 61.3396 89.9417 60.3754 89.4376C59.4082 88.9553 58.4068 88.5447 57.3795 88.2091C57.1245 88.1121 56.8658 88.0474 56.6072 87.972C56.3486 87.8965 56.0971 87.8175 55.8205 87.7564L54.1897 87.3685L50.8705 86.5998C48.6282 86.0727 46.4198 85.4105 44.2574 84.6169C39.8507 83.0237 35.8078 80.5637 32.3674 77.3823C32.1447 77.1919 31.9435 76.9799 31.7388 76.7716L31.1281 76.143L30.5139 75.5143C30.3163 75.2952 30.1223 75.0653 29.9283 74.839C29.1646 73.9342 28.4693 72.9736 27.8485 71.9653C24.1115 65.8953 22.5886 58.7198 23.5379 51.6552C24.2112 46.9606 26.031 42.5043 28.8363 38.6803C30.2197 36.7843 31.7928 35.0342 33.5312 33.4573C35.2735 31.9114 37.1299 30.4993 39.0847 29.2329C42.9822 26.7184 47.3071 24.7427 51.9302 23.8088C54.2443 23.3367 56.6083 23.1557 58.9672 23.2699C61.333 23.3886 63.6726 23.8198 65.9252 24.5523C68.177 25.2812 70.3186 26.3146 72.2905 27.6236C74.2728 28.9148 76.0688 30.4715 77.6285 32.2503C79.2051 34.0196 80.5178 36.0075 81.5259 38.1523C82.4949 40.2864 83.2378 42.5161 83.7423 44.8049C84.2142 47.0861 84.4787 49.4054 84.5326 51.7342C84.5539 54.0396 84.4339 56.3441 84.1734 58.6348C83.9399 60.9122 83.6022 63.1645 83.34 65.3845C83.2717 65.9412 83.2142 66.4944 83.1711 67.044C83.128 67.5936 83.0957 68.1217 83.0742 68.6856C83.0598 68.9549 83.0598 69.2247 83.0742 69.4939L83.0957 70.2985C83.1568 70.8302 83.1747 71.3762 83.2789 71.9006C83.6368 74.0482 84.3123 76.1305 85.2833 78.0791C85.7575 79.0742 86.2891 80.0476 86.8495 81.0175C87.4099 81.9874 88.017 82.9573 88.5701 84.0026Z"
        fill="#5F5F5F" />
    <path
        d="M74.3342 93.2775C72.6201 90.237 70.5965 87.3817 68.2958 84.7569C66.018 82.0827 63.5651 79.5626 60.9535 77.2133L59.9692 76.3548L58.967 75.5035C58.2953 74.9575 57.6128 74.3719 56.959 73.9265C55.5284 73.0049 54.0099 72.2276 52.4257 71.606C50.8093 70.9271 49.1281 70.2912 47.4578 69.483C46.6026 69.0745 45.7779 68.6051 44.99 68.0785C44.161 67.5188 43.4149 66.8452 42.7736 66.0776C42.1204 65.2746 41.6321 64.3505 41.3368 63.3584C41.2721 63.1105 41.2039 62.8627 41.15 62.6148C41.0961 62.3669 41.0602 62.1155 41.0278 61.864C40.9731 61.3631 40.9563 60.8588 40.9776 60.3553C41.0058 59.2932 41.2984 58.2549 41.8289 57.3343C42.3881 56.4189 43.1868 55.6736 44.1386 55.179C45.0311 54.7145 45.9973 54.4083 46.9944 54.2738C47.9633 54.1351 48.9461 54.1218 49.9184 54.2343C50.8921 54.3371 51.8491 54.5616 52.767 54.9024C53.7756 55.2527 54.69 55.8304 55.4395 56.5907C55.8682 57.0602 56.1807 57.6237 56.3519 58.2359C56.5237 58.8804 56.51 59.5603 56.3124 60.1973C56.1101 60.8609 55.7057 61.4448 55.1558 61.8676C54.5969 62.2965 53.9133 62.5311 53.2088 62.5358C52.5633 62.5388 51.9286 62.3702 51.3696 62.0472C51.2268 61.9742 51.0899 61.8901 50.9601 61.7958C50.8272 61.6988 50.7159 61.6018 50.6009 61.5012C50.3977 61.3112 50.208 61.1071 50.0334 60.8906C49.4222 60.093 48.9376 59.2062 48.5965 58.2611C47.8529 56.4084 47.6197 54.3901 47.9212 52.4166C48.1013 51.3916 48.4926 50.4153 49.0701 49.5495C49.6477 48.6838 50.399 47.9475 51.2762 47.3876C51.6857 47.0998 52.1182 46.8463 52.5694 46.6297C52.794 46.5168 53.0256 46.4184 53.2627 46.3351C53.4963 46.2363 53.7363 46.1535 53.9811 46.0872C54.9478 45.81 55.9499 45.6757 56.9554 45.6885C57.9392 45.7349 58.9138 45.9002 59.8579 46.1806C60.8073 46.4748 61.7124 46.8966 62.5484 47.4343C63.4275 47.9805 64.1904 48.6946 64.7935 49.5357C65.1454 50.0334 65.3833 50.6025 65.4904 51.2025C65.5959 51.799 65.5739 52.4112 65.4257 52.9986C65.2774 53.5955 65.0049 54.1545 64.6261 54.6391C64.2474 55.1237 63.7708 55.5231 63.2273 55.8112C62.6106 56.1219 61.9143 56.2384 61.2301 56.1453C60.5627 56.0446 59.9389 55.7526 59.434 55.3047C57.6702 53.6631 57.3039 51.2959 57.7313 49.2986C58.1706 47.2839 59.3598 45.5117 61.0577 44.3415C61.4773 44.056 61.9194 43.8049 62.3796 43.5907C62.6166 43.4973 62.8573 43.4183 63.098 43.3321C63.3306 43.2425 63.5711 43.1751 63.8164 43.1309C64.0643 43.0842 64.3085 43.0159 64.5348 42.9872L65.2533 42.901H66.004C66.2555 42.901 66.5141 42.9333 66.7692 42.9477C67.8373 43.0595 68.857 43.4511 69.7255 44.0828C70.5808 44.731 71.26 45.5831 71.7012 46.5614C72.1322 47.4866 72.3926 48.4821 72.4699 49.4998C72.5411 50.4272 72.5591 51.3579 72.5238 52.2873C72.4735 54.0834 72.3693 55.8795 72.3298 57.6181C72.2679 59.346 72.3147 61.076 72.4699 62.798C72.5465 63.6292 72.6822 64.4539 72.8758 65.2658C73.0914 66.092 73.3284 66.929 73.5943 67.7516C74.6928 71.0772 76.0314 74.3187 77.5995 77.4504C78.379 79.0238 79.1908 80.5864 80.0601 82.1202C80.9042 83.6347 81.8424 85.0948 82.8692 86.4919V86.5135C83.0121 86.6921 83.0782 86.9202 83.0529 87.1475C83.0277 87.3749 82.9131 87.5829 82.7345 87.7258C82.5558 87.8687 82.3278 87.9348 82.1004 87.9095C81.873 87.8843 81.665 87.7697 81.5221 87.5911C80.3765 86.1698 79.3345 84.668 78.4041 83.0973C77.4678 81.5575 76.5829 79.9901 75.7495 78.3952C74.0736 75.1958 72.633 71.8787 71.439 68.47C71.1372 67.6115 70.8894 66.735 70.6451 65.8405C70.4169 64.9252 70.2536 63.9949 70.1566 63.0566C69.9787 61.2376 69.9127 59.4093 69.959 57.5822C69.9842 55.7861 70.0739 53.99 70.1063 52.2442C70.1063 51.3749 70.135 50.502 70.074 49.701C70.0672 49.5074 70.0504 49.3144 70.0237 49.1226C70.005 48.9328 69.9738 48.7444 69.9303 48.5587C69.8979 48.3683 69.8405 48.1994 69.7974 48.0019C69.7542 47.8043 69.6932 47.6426 69.6177 47.4738C69.3917 46.795 68.9808 46.1927 68.4313 45.7346C67.8817 45.2764 67.2153 44.9806 66.5069 44.8803C66.3166 44.8623 66.1477 44.8336 65.9394 44.8264H65.361L64.7683 44.8875C64.5708 44.9054 64.3876 44.9665 64.1972 45.0024C64.0076 45.0348 63.8221 45.0878 63.644 45.1605C63.4644 45.2287 63.2848 45.2898 63.1052 45.3616C62.7585 45.5238 62.4288 45.7199 62.1209 45.9471C60.8827 46.8564 60.0467 48.2116 59.7896 49.7261C59.6633 50.4439 59.7026 51.1811 59.9046 51.8814C59.9461 52.0493 60.0064 52.2119 60.0842 52.3663L60.1812 52.5998L60.3177 52.8154C60.4656 53.0887 60.6629 53.3323 60.8996 53.5338C61.0655 53.6825 61.2718 53.7788 61.4923 53.8104C61.6961 53.8285 61.9006 53.7834 62.0778 53.6811C62.5643 53.4051 62.9219 52.948 63.0728 52.4095C63.1572 52.1402 63.182 51.8558 63.1454 51.5761C63.1088 51.2963 63.0117 51.0279 62.8609 50.7894C62.454 50.1592 61.9237 49.6178 61.3019 49.1981C60.0123 48.2757 58.4538 47.8059 56.8692 47.8618C56.0949 47.9022 55.3304 48.0534 54.599 48.3108C54.4169 48.3743 54.2393 48.4499 54.0673 48.5371C53.8879 48.6082 53.7128 48.6898 53.5429 48.7814C53.1989 48.9621 52.8677 49.1662 52.5514 49.392C51.9172 49.794 51.36 50.3061 50.9062 50.9044C50.4568 51.4902 50.1339 52.1629 49.9579 52.88C49.6185 54.429 49.7912 56.0464 50.4501 57.4888C50.7545 58.2017 51.169 58.8623 51.6786 59.4465C51.7895 59.5747 51.9096 59.6947 52.0378 59.8057C52.0906 59.8482 52.1458 59.8878 52.203 59.9243C52.2562 59.9554 52.3114 59.983 52.3682 60.0069C52.5893 60.1235 52.8369 60.1805 53.0867 60.1721C53.2765 60.168 53.4601 60.1039 53.6111 59.9889C53.7703 59.866 53.8891 59.6984 53.9524 59.5076C54.0207 59.2899 54.0294 59.058 53.9775 58.8358C53.9137 58.5852 53.7905 58.3535 53.6183 58.1605C53.3947 57.909 53.14 57.6869 52.8604 57.4996C52.5439 57.291 52.2098 57.1107 51.8618 56.9607C51.1265 56.644 50.354 56.4219 49.5628 56.2998C48.7703 56.1625 47.9622 56.1395 47.1632 56.2315C46.3913 56.3093 45.6408 56.5311 44.9505 56.8853C44.3103 57.2035 43.7781 57.7033 43.4202 58.3222C43.0887 58.967 42.9361 59.6889 42.9784 60.4128C42.9855 60.7983 43.0228 61.1826 43.0897 61.5623C43.1256 61.7527 43.1759 61.9395 43.2155 62.1263C43.255 62.3131 43.334 62.4855 43.3879 62.6651C43.6567 63.3613 44.0444 64.0055 44.5338 64.5689C45.518 65.7112 46.919 66.6057 48.4384 67.36C49.9579 68.1144 51.6103 68.7538 53.2663 69.4686C55.0147 70.1559 56.6889 71.0188 58.263 72.0442C59.0748 72.6082 59.7358 73.1937 60.4183 73.772L61.442 74.6629L62.4406 75.5789C65.0816 78.0353 67.5549 80.6658 69.8441 83.4529C70.9792 84.8539 72.064 86.3015 73.077 87.7958C74.112 89.2946 75.0375 90.8661 75.8465 92.498C75.9387 92.6995 75.9497 92.9287 75.8774 93.138C75.8051 93.3474 75.655 93.521 75.4581 93.6226C75.2613 93.7243 75.0329 93.7462 74.8203 93.684C74.6077 93.6217 74.4272 93.48 74.3163 93.2883L74.3342 93.2775Z"
        fill="#5F5F5F" />
    <path
        d="M92.6983 98.1342C93.6897 99.5495 95.0081 103.659 91.7536 106.037C87.9782 108.789 84.8926 107.032 83.2474 105.15C81.868 103.566 91.6171 96.5932 92.6983 98.1342Z"
        fill="white" />
    <path
        d="M93.5172 97.5486C93.9485 98.1695 94.2851 98.8511 94.5159 99.571C94.7523 100.281 94.8948 101.019 94.9397 101.766C94.9825 102.552 94.8765 103.339 94.6272 104.086C94.379 104.861 93.9576 105.568 93.3951 106.155C93.1263 106.446 92.8317 106.712 92.515 106.949C92.2097 107.165 91.9079 107.359 91.5918 107.549C91.2663 107.735 90.9291 107.899 90.5824 108.041C90.4028 108.11 90.2232 108.185 90.0508 108.246L89.4904 108.397C88.725 108.58 87.9329 108.624 87.1519 108.526C86.383 108.416 85.6391 108.173 84.9536 107.808C84.2952 107.457 83.6904 107.015 83.1575 106.493C83.0282 106.364 82.8953 106.238 82.7767 106.102L82.5935 105.897L82.5253 105.811C82.4555 105.725 82.3931 105.634 82.3385 105.538C82.2345 105.342 82.1733 105.126 82.1589 104.905C82.1494 104.733 82.1639 104.56 82.202 104.392C82.2619 104.148 82.3537 103.914 82.475 103.695C82.8627 103.061 83.3366 102.484 83.8831 101.981C84.3824 101.504 84.8925 101.065 85.4169 100.649C85.9414 100.232 86.4946 99.8404 87.0262 99.4525C87.5579 99.0645 88.1326 98.7017 88.7074 98.3497C89.2946 97.9829 89.9054 97.6554 90.5357 97.369C90.8914 97.2119 91.2621 97.0916 91.6421 97.0098C91.8931 96.954 92.1511 96.937 92.4073 96.9595C92.492 96.9662 92.576 96.9794 92.6587 96.999C92.7602 97.0236 92.8589 97.0585 92.9533 97.1032C93.1747 97.2036 93.3683 97.3565 93.5172 97.5486ZM91.8792 98.6981C91.9323 98.7729 92.0041 98.8324 92.0876 98.8705C92.1102 98.8742 92.1332 98.8742 92.1558 98.8705C92.0892 98.8602 92.0213 98.8602 91.9546 98.8705C91.6989 98.9115 91.4484 98.9801 91.2075 99.0753C90.6419 99.2832 90.0941 99.5367 89.5695 99.8332C89.0212 100.13 88.491 100.458 87.9817 100.817C87.4645 101.174 86.9675 101.554 86.491 101.956C86.0154 102.347 85.5644 102.767 85.1404 103.213C84.7436 103.599 84.407 104.042 84.1417 104.528C84.1068 104.593 84.0825 104.664 84.0699 104.737C84.0699 104.772 84.1058 104.679 84.0304 104.532C84.0185 104.504 84.0014 104.478 83.9801 104.456L84.0555 104.532L84.2064 104.683C84.3034 104.787 84.4147 104.873 84.5189 104.966C84.9352 105.327 85.3994 105.628 85.8983 105.861C86.8355 106.308 87.9048 106.394 88.9013 106.102L89.2605 105.987C89.3827 105.94 89.5048 105.879 89.6198 105.832C89.8656 105.726 90.1055 105.606 90.3382 105.473C90.5717 105.326 90.8087 105.16 91.0315 105.002C91.2299 104.851 91.415 104.683 91.5846 104.499C91.6726 104.414 91.7543 104.323 91.8289 104.226L92.0409 103.932C92.1643 103.725 92.2723 103.508 92.3642 103.285C92.5468 102.81 92.6429 102.307 92.6479 101.798C92.6586 101.25 92.5909 100.703 92.4468 100.174C92.3227 99.661 92.1268 99.1676 91.8648 98.7089L91.8792 98.6981Z"
        fill="#5F5F5F" />
    <path
        d="M78.1458 102.955C79.6006 101.284 90.4453 93.6152 92.6257 92.6381C95.4995 91.3521 97.5254 94.4593 95.6683 96.5895C92.5826 100.139 84.8631 105.347 81.1596 107.366C78.2787 108.954 75.8217 105.627 78.1458 102.955Z"
        fill="#5F5F5F" />
    <path
        d="M77.4199 102.326C77.8314 101.91 78.2694 101.522 78.731 101.162C79.1585 100.803 79.5895 100.494 80.0206 100.167C80.8875 99.5254 81.7544 98.8932 82.6213 98.2706C84.3599 97.0169 86.0913 95.7561 87.8551 94.5383C88.7387 93.9276 89.6224 93.3242 90.542 92.7422C90.7719 92.5949 90.9982 92.4477 91.2425 92.304L91.6017 92.0885C91.7238 92.0166 91.8675 91.9448 91.9968 91.8729C92.2893 91.7234 92.5932 91.5973 92.9056 91.4958C93.249 91.4029 93.6025 91.3522 93.9581 91.3449C94.7224 91.3302 95.4695 91.572 96.0803 92.0317C96.691 92.4914 97.1302 93.1424 97.3276 93.8809C97.5276 94.6163 97.4886 95.3963 97.2162 96.1081C97.0855 96.4489 96.909 96.7703 96.6917 97.0636L96.5301 97.2827C96.4857 97.3407 96.4377 97.3959 96.3864 97.448L96.1026 97.7677C95.3554 98.5866 94.5588 99.3591 93.7174 100.081C92.8948 100.799 92.0543 101.489 91.2029 102.15C89.4859 103.468 87.7329 104.722 85.9117 105.886C85.0065 106.475 84.0761 107.021 83.135 107.567C82.6644 107.84 82.1902 108.102 81.6981 108.361C81.0535 108.695 80.3372 108.868 79.6111 108.864C78.8373 108.83 78.0962 108.542 77.5025 108.045C76.9288 107.555 76.522 106.898 76.3386 106.166C76.1726 105.465 76.205 104.731 76.432 104.047C76.6399 103.412 76.9761 102.826 77.4199 102.326ZM78.8567 103.587C78.6033 103.861 78.419 104.192 78.3191 104.552C78.2191 104.912 78.2064 105.29 78.282 105.656C78.3702 105.961 78.5525 106.23 78.8028 106.425C79.0419 106.605 79.3333 106.702 79.6326 106.701C79.9748 106.671 80.3066 106.568 80.6061 106.4C81.0479 106.141 81.4969 105.875 81.9388 105.599C82.826 105.049 83.7025 104.471 84.579 103.889C86.3284 102.721 88.0562 101.514 89.7337 100.257C90.5671 99.6212 91.3969 98.9854 92.1908 98.3173C92.98 97.668 93.7354 96.9786 94.4538 96.2518L94.7125 95.9824C94.752 95.9393 94.8095 95.8854 94.8346 95.8495L94.9136 95.7489C95.0174 95.6171 95.1054 95.4736 95.1758 95.3214C95.3014 95.0355 95.3304 94.7165 95.2585 94.4126C95.1943 94.1084 95.0277 93.8353 94.7864 93.6392C94.5452 93.443 94.2439 93.3357 93.933 93.3349C93.7557 93.333 93.5787 93.3499 93.4049 93.3852C93.2097 93.4451 93.0189 93.5184 92.8338 93.6044C92.7296 93.6582 92.629 93.6977 92.5213 93.7588L92.1872 93.9456C91.9645 94.0641 91.7417 94.197 91.519 94.3336C90.6246 94.8688 89.723 95.4471 88.8501 96.0255C87.0827 97.1893 85.3298 98.3891 83.6271 99.6499C82.7793 100.286 81.9388 100.929 81.1126 101.59C80.7067 101.92 80.2972 102.251 79.9056 102.588C79.5421 102.901 79.1967 103.235 78.8711 103.587H78.8567Z"
        fill="#5F5F5F" />
    <path
        d="M72.7899 101.012C74.6866 98.7629 88.8612 88.4857 91.7133 87.1781C95.4815 85.4539 98.1325 89.6388 95.7078 92.5053C91.6774 97.2685 81.5907 104.252 76.7484 106.967C72.9803 109.08 69.751 104.6 72.7899 101.012Z"
        fill="white" />
    <path
        d="M72.0103 100.351C72.5372 99.8049 73.0974 99.2927 73.6879 98.8167C74.2447 98.3569 74.805 97.9186 75.3654 97.4804C76.4933 96.6111 77.6285 95.7669 78.7708 94.9299C81.0554 93.268 83.3543 91.6227 85.6677 89.9943C86.828 89.1825 87.9882 88.3742 89.1952 87.6019C89.4933 87.4044 89.7951 87.214 90.1112 87.0272L90.5782 86.7434L91.0883 86.4704C91.1781 86.4237 91.2607 86.377 91.3505 86.3339L91.645 86.2225C91.8397 86.1418 92.0388 86.0723 92.2413 86.0142L92.8807 85.8849C93.0963 85.8525 93.3226 85.8633 93.5453 85.8525C94.4688 85.8625 95.3616 86.1854 96.0777 86.7685C96.7882 87.3557 97.2918 88.1552 97.5146 89.0496C97.7319 89.9346 97.6781 90.8645 97.3601 91.7185C97.1944 92.131 96.9772 92.5209 96.7135 92.8788L96.5232 93.1482C96.4585 93.2308 96.401 93.2883 96.34 93.3602L95.9808 93.7768C95.0134 94.8557 93.9843 95.8776 92.8987 96.8374C91.821 97.8037 90.7434 98.7197 89.6227 99.6069C87.3847 101.371 85.1037 103.063 82.7401 104.636C81.5571 105.431 80.3597 106.199 79.1479 106.939C78.5265 107.298 77.923 107.657 77.2621 108.016C76.8675 108.224 76.4505 108.387 76.0192 108.501C75.5644 108.611 75.0964 108.655 74.629 108.634C73.6647 108.581 72.7473 108.201 72.0283 107.556C71.3392 106.924 70.8613 106.095 70.6597 105.182C70.4661 104.308 70.5095 103.397 70.7854 102.545C71.041 101.738 71.4577 100.992 72.0103 100.351ZM73.5657 101.669C73.2057 102.103 72.9369 102.605 72.7755 103.145C72.6259 103.644 72.6147 104.174 72.7432 104.679C72.8585 105.149 73.1171 105.572 73.4831 105.89C73.8261 106.186 74.2618 106.354 74.7152 106.364C74.9577 106.367 75.1995 106.337 75.4337 106.274C75.6834 106.2 75.9243 106.099 76.1521 105.972C76.7197 105.645 77.3267 105.279 77.9087 104.895C79.0833 104.176 80.2579 103.415 81.411 102.632C83.7315 101.083 86.0125 99.4704 88.2145 97.7713C89.3137 96.92 90.4057 96.0579 91.4475 95.1598C92.4944 94.2802 93.491 93.3424 94.4325 92.3508L94.7918 91.9916C94.8456 91.9305 94.9103 91.8658 94.9534 91.8084L95.0719 91.6467C95.2324 91.4416 95.3663 91.2171 95.4707 90.9786C95.6618 90.5095 95.7069 89.9937 95.6 89.4986C95.5005 89.0127 95.2489 88.571 94.8816 88.2377C94.5071 87.9164 94.0348 87.7315 93.5417 87.7133C93.4113 87.7044 93.2805 87.7044 93.1501 87.7133L92.7514 87.7851C92.6185 87.8139 92.4856 87.8785 92.3527 87.9216L92.1515 87.9899L91.9432 88.0976L91.5193 88.3132L91.0811 88.5718C90.7865 88.737 90.4919 88.931 90.1974 89.107C89.0228 89.8255 87.8589 90.6193 86.6986 91.4024C84.3901 92.9902 82.1222 94.6414 79.8951 96.356C78.7863 97.211 77.6895 98.0803 76.6047 98.9639C76.0695 99.4058 75.5271 99.8512 75.017 100.304C74.5072 100.73 74.0227 101.186 73.5657 101.669Z"
        fill="#5F5F5F" />
    <path
        d="M68.4833 95.289C70.3835 93.0439 84.5582 82.7632 87.4067 81.4592C91.1785 79.7314 94.4258 83.6612 92.0011 86.5278C87.9707 91.291 77.2733 98.5328 72.4454 101.256C68.6773 103.361 65.4479 98.8812 68.4833 95.289Z"
        fill="white" />
    <path
        d="M67.7004 94.6246C68.2303 94.0691 68.7954 93.5484 69.3923 93.0656C69.9491 92.5951 70.5131 92.1496 71.0807 91.7042C72.2122 90.8205 73.3581 89.9584 74.5076 89.1071C76.7994 87.3948 79.1223 85.7184 81.4763 84.078C82.6546 83.2626 83.8292 82.4472 85.0685 81.6677C85.7014 81.2544 86.3561 80.8755 87.0298 80.5326C87.8293 80.1729 88.7004 80.0009 89.5766 80.0297C90.5007 80.0774 91.3887 80.404 92.1235 80.9664C92.8584 81.5287 93.4056 82.3005 93.6932 83.18C93.9797 84.0988 93.9352 85.0889 93.5675 85.9783C93.479 86.1946 93.3758 86.4047 93.2586 86.6069C93.1329 86.7937 92.9999 86.9661 92.867 87.1637C92.6156 87.4762 92.3713 87.7348 92.1199 88.0222C91.1175 89.0909 90.06 90.1065 88.9516 91.0648C87.8572 92.0227 86.7412 92.9399 85.6037 93.8164C83.3191 95.5729 80.9914 97.2541 78.5954 98.8454C77.398 99.6405 76.1815 100.412 74.9458 101.159C74.328 101.518 73.6957 101.877 73.0563 102.236C72.2573 102.694 71.3511 102.93 70.4305 102.923C69.4536 102.896 68.5159 102.533 67.7759 101.895C67.0628 101.27 66.5609 100.439 66.339 99.5171C66.1307 98.6335 66.1655 97.71 66.4396 96.8446C66.7026 96.0257 67.1318 95.2699 67.7004 94.6246ZM69.2702 95.9537C68.9038 96.3899 68.6322 96.8976 68.4728 97.4445C68.3247 97.9488 68.316 98.4838 68.4476 98.9927C68.5713 99.4656 68.8387 99.8886 69.2127 100.203C69.5686 100.494 70.0144 100.651 70.4736 100.649C70.9829 100.629 71.4783 100.477 71.9104 100.207C72.5091 99.8572 73.1078 99.498 73.7065 99.1292C74.9027 98.4108 76.0917 97.6348 77.2627 96.8446C79.6192 95.2963 81.9325 93.6691 84.1776 91.97C86.4249 90.3205 88.5465 88.5062 90.525 86.5422C90.7477 86.298 90.9955 86.0393 91.1967 85.8023C91.2721 85.6981 91.3476 85.5939 91.4266 85.4933C91.5056 85.3928 91.5308 85.2742 91.5954 85.1665C91.7853 84.7339 91.8183 84.2486 91.6888 83.7943C91.5329 83.3109 91.2343 82.8861 90.8322 82.5757C90.4302 82.2654 89.9436 82.0841 89.4365 82.0556C88.8854 82.0386 88.3373 82.1428 87.8308 82.361C87.2848 82.6268 86.6813 82.9824 86.0886 83.3488C84.8996 84.0672 83.725 84.8755 82.5504 85.6658C80.2227 87.2786 77.9237 88.949 75.6571 90.6517C74.5243 91.5066 73.4096 92.3783 72.3128 93.2668C71.7704 93.7122 71.2351 94.1576 70.6999 94.6138C70.1974 95.0319 69.72 95.4793 69.2702 95.9537Z"
        fill="#5F5F5F" />
    <path
        d="M96.5524 55.1789L99.4979 55.2723C100.497 55.2974 101.499 55.337 102.501 55.3729C103.503 55.4088 104.513 55.4627 105.515 55.5309C106.517 55.5992 107.523 55.6818 108.511 55.8039C108.719 55.8283 108.911 55.9268 109.052 56.0814C109.193 56.236 109.273 56.4363 109.278 56.6455C109.284 56.8548 109.213 57.0589 109.08 57.2203C108.947 57.3818 108.76 57.4898 108.554 57.5246C107.529 57.6901 106.495 57.7837 105.457 57.8048C104.43 57.8371 103.403 57.8048 102.379 57.776C101.355 57.7473 100.328 57.6431 99.3004 57.5066C98.2501 57.3878 97.2126 57.175 96.2003 56.8708C96.0001 56.8086 95.8292 56.6758 95.7194 56.497C95.6097 56.3183 95.5686 56.1059 95.6037 55.8991C95.6388 55.6923 95.7478 55.5054 95.9104 55.3729C96.073 55.2404 96.2781 55.1715 96.4877 55.1789H96.5524Z"
        fill="#5F5F5F" />
    <path
        d="M90.1869 28.8988C91.1589 28.2373 92.1851 27.6593 93.2546 27.1709C94.3035 26.6776 95.3692 26.2334 96.4516 25.8382C97.5293 25.4395 98.6321 25.0695 99.7492 24.7606C100.874 24.4359 102.022 24.1957 103.183 24.0422C103.391 24.0158 103.601 24.0652 103.775 24.1812C103.949 24.2973 104.076 24.4723 104.131 24.6741C104.187 24.8759 104.167 25.0909 104.077 25.2797C103.987 25.4684 103.831 25.6183 103.64 25.7017C102.616 26.1508 101.574 26.5818 100.529 27.0057C99.4834 27.4296 98.4309 27.8499 97.3748 28.2558C96.3187 28.6617 95.2554 29.0532 94.1886 29.4268C93.1217 29.8004 92.0333 30.1452 90.9736 30.4542H90.9413C90.8311 30.4864 90.7157 30.4965 90.6016 30.4837C90.4876 30.4709 90.3772 30.4356 90.2769 30.3798C90.1766 30.3239 90.0885 30.2487 90.0175 30.1585C89.9466 30.0683 89.8943 29.9649 89.8636 29.8543C89.8126 29.6811 89.8162 29.4964 89.8741 29.3253C89.9319 29.1543 90.0412 29.0053 90.1869 28.8988Z"
        fill="#5F5F5F" />
    <path
        d="M66.9097 15.7406C67.2006 14.6271 67.5024 13.4237 67.8436 12.2491C68.1849 11.0744 68.5621 9.88901 68.95 8.71437C69.338 7.53974 69.7942 6.37228 70.3114 5.21919C70.5629 4.64086 70.8431 4.0697 71.152 3.49855C71.31 3.21477 71.4681 2.93099 71.6585 2.6472C71.8458 2.35585 72.051 2.07633 72.2727 1.81024C72.4034 1.6498 72.5873 1.54168 72.7911 1.50562C72.9948 1.46957 73.2047 1.50799 73.3824 1.61386C73.5602 1.71972 73.6939 1.88599 73.7593 2.08229C73.8246 2.27859 73.8172 2.49185 73.7383 2.68313L73.6952 2.78371C73.2749 3.76078 72.9014 4.93901 72.5278 6.07413C72.1542 7.20926 71.777 8.38389 71.3891 9.54775C71.0011 10.7116 70.588 11.8719 70.1246 13.0286C69.6755 14.2218 69.1226 15.3733 68.4722 16.4699C68.3643 16.6481 68.1957 16.7815 67.9973 16.8454C67.7989 16.9094 67.5842 16.8996 67.3924 16.818C67.2007 16.7363 67.0448 16.5882 66.9535 16.4008C66.8622 16.2135 66.8415 15.9995 66.8953 15.7981L66.9097 15.7406Z"
        fill="#5F5F5F" />
    <path
        d="M39.2253 17.4685C38.8445 16.2292 38.5069 14.9217 38.2087 13.6321C37.9106 12.3425 37.6555 11.0313 37.4292 9.71661C37.3143 9.05924 37.2209 8.39829 37.1239 7.73733C37.0269 7.07637 36.955 6.41182 36.8976 5.74367C36.7491 4.38746 36.7179 3.02097 36.8042 1.65939C36.8219 1.45144 36.9139 1.25681 37.0632 1.11105C37.2126 0.965284 37.4094 0.878126 37.6177 0.865488C37.826 0.852849 38.0319 0.915578 38.1978 1.04221C38.3637 1.16885 38.4785 1.35093 38.5212 1.55521V1.58754C38.7691 2.83402 39.0349 4.12002 39.2756 5.40601C39.4049 6.04901 39.5091 6.6992 39.6348 7.34579L39.9689 9.29273C40.1772 10.5931 40.3856 11.8971 40.5508 13.2118C40.716 14.5265 40.8741 15.8305 40.91 17.2063C40.9209 17.4182 40.8536 17.6267 40.7209 17.7922C40.5882 17.9578 40.3993 18.0688 40.1901 18.1043C39.9809 18.1397 39.766 18.0971 39.5861 17.9846C39.4063 17.872 39.274 17.6973 39.2145 17.4936L39.2253 17.4685Z"
        fill="#5F5F5F" />
    <path
        d="M17.7877 31.8659C17.486 31.6934 17.195 31.5066 16.8573 31.345C16.5197 31.1834 16.2 30.9858 15.8659 30.8205L13.8328 29.7896L9.73052 27.7169C8.36071 27.0248 6.99691 26.3196 5.63908 25.6011L1.63742 23.4458L1.59432 23.4243C1.40922 23.325 1.26653 23.1618 1.19283 22.9651C1.11913 22.7685 1.11945 22.5517 1.19373 22.3552C1.26801 22.1587 1.41116 21.996 1.59655 21.8973C1.78194 21.7985 1.99691 21.7706 2.20139 21.8186C2.98083 22.0139 3.7484 22.2537 4.50035 22.537L5.59955 22.9609L6.67719 23.4135C8.11405 24.0278 9.51499 24.6995 10.9016 25.4143C12.2881 26.1292 13.6496 26.8835 14.9858 27.7025C15.6576 28.1085 16.3149 28.5395 16.9687 28.9921C17.292 29.2292 17.6189 29.4447 17.935 29.7106C18.0966 29.8435 18.2547 29.9548 18.4164 30.1021L18.8905 30.5403C19.0485 30.683 19.1478 30.8793 19.1692 31.0911C19.1907 31.3029 19.1327 31.5151 19.0064 31.6865C18.8802 31.858 18.6948 31.9764 18.4862 32.0188C18.2776 32.0612 18.0607 32.0247 17.8775 31.9162L17.7877 31.8659Z"
        fill="#5F5F5F" />
    <path
        d="M17.0473 70.1871L9.0835 72.1413L7.0719 72.6154C6.39658 72.7591 5.73202 72.9315 5.06029 73.0716L3.05948 73.5243C2.40212 73.6715 1.72319 73.8296 1.14126 73.9841L1.07661 74.002C0.876063 74.0524 0.664102 74.0293 0.479093 73.937C0.294083 73.8446 0.148237 73.6891 0.0679385 73.4986C-0.0123598 73.308 -0.0217957 73.095 0.0413219 72.8981C0.104439 72.7012 0.235937 72.5334 0.412047 72.4251C1.05633 72.0574 1.7276 71.7392 2.42007 71.4731L3.41869 71.1139C3.75276 70.9918 4.08683 70.8876 4.42449 70.7547C5.09263 70.532 5.77155 70.3452 6.44687 70.1476C7.1222 69.95 7.8047 69.7884 8.48721 69.6268C9.85582 69.3107 11.2316 69.0269 12.6289 68.8185C14.0432 68.5758 15.4758 68.4556 16.9108 68.4593C17.1207 68.464 17.3217 68.5449 17.4764 68.6867C17.6311 68.8286 17.7291 69.0219 17.7519 69.2306C17.7747 69.4393 17.721 69.6492 17.6006 69.8212C17.4802 69.9932 17.3015 70.1156 17.0976 70.1656L17.0473 70.1871Z"
        fill="#5F5F5F" />
    <path
        d="M34.8001 92.8142L31.6211 99.4022L28.4097 105.961V105.979C28.3183 106.171 28.1596 106.322 27.9639 106.405C27.7682 106.487 27.549 106.494 27.3481 106.426C27.1473 106.357 26.9786 106.217 26.8743 106.032C26.7701 105.847 26.7374 105.63 26.7825 105.423C27.0639 104.178 27.4484 102.958 27.932 101.777C28.3989 100.606 28.9138 99.4609 29.4766 98.3425C30.0334 97.2217 30.6189 96.1153 31.2726 95.0341C31.9041 93.9266 32.6135 92.8654 33.3956 91.8586C33.5316 91.7055 33.7176 91.6058 33.9204 91.5774C34.1232 91.5489 34.3295 91.5936 34.5023 91.7034C34.6752 91.8131 34.8033 91.9808 34.8638 92.1765C34.9243 92.3721 34.9132 92.5829 34.8325 92.771L34.8001 92.8142Z"
        fill="#5F5F5F" />
</svg>